<svg width="11" height="13" viewBox="0 0 11 13" fill="none" xmlns="http://www.w3.org/2000/svg">
<path d="M9.52 6.72031C9.52 9.52031 7.56 10.9203 5.2304 11.7323C5.10841 11.7736 4.9759 11.7717 4.8552 11.7267C2.52 10.9203 0.559998 9.52031 0.559998 6.72031V2.80031C0.559998 2.65179 0.618997 2.50935 0.724018 2.40433C0.829038 2.29931 0.971476 2.24031 1.12 2.24031C2.24 2.24031 3.64 1.56831 4.6144 0.71711C4.73304 0.61575 4.88396 0.560059 5.04 0.560059C5.19604 0.560059 5.34696 0.61575 5.4656 0.71711C6.4456 1.57391 7.84 2.24031 8.96 2.24031C9.10852 2.24031 9.25096 2.29931 9.35598 2.40433C9.461 2.50935 9.52 2.65179 9.52 2.80031V6.72031Z" stroke="#B71C1C" stroke-width="1.12" stroke-linecap="round" stroke-linejoin="round"/>
</svg>
