<svg width="12" height="13" viewBox="0 0 12 13" fill="none" xmlns="http://www.w3.org/2000/svg">
<path d="M4.27138 1.74646C4.30223 1.42185 4.45301 1.1204 4.69424 0.901016C4.93547 0.681628 5.24983 0.560059 5.5759 0.560059C5.90197 0.560059 6.21633 0.681628 6.45756 0.901016C6.69879 1.1204 6.84956 1.42185 6.88042 1.74646C6.89897 1.95615 6.96776 2.15829 7.08097 2.33577C7.19419 2.51325 7.3485 2.66083 7.53084 2.76604C7.71318 2.87124 7.91818 2.93097 8.12849 2.94017C8.3388 2.94936 8.54824 2.90775 8.73906 2.81886C9.03536 2.68434 9.37112 2.66487 9.68098 2.76425C9.99084 2.86363 10.2526 3.07475 10.4154 3.35652C10.5782 3.63828 10.6303 3.97054 10.5617 4.28862C10.493 4.6067 10.3084 4.88784 10.0439 5.07734C9.87159 5.19821 9.73097 5.3588 9.63389 5.54551C9.53681 5.73223 9.48613 5.93958 9.48613 6.15002C9.48613 6.36046 9.53681 6.56781 9.63389 6.75453C9.73097 6.94124 9.87159 7.10183 10.0439 7.2227C10.3084 7.41219 10.493 7.69334 10.5617 8.01142C10.6303 8.3295 10.5782 8.66176 10.4154 8.94352C10.2526 9.22529 9.99084 9.43641 9.68098 9.53579C9.37112 9.63517 9.03536 9.6157 8.73906 9.48118C8.54824 9.39229 8.3388 9.35068 8.12849 9.35987C7.91818 9.36907 7.71318 9.42879 7.53084 9.534C7.3485 9.63921 7.19419 9.78679 7.08097 9.96427C6.96776 10.1417 6.89897 10.3439 6.88042 10.5536C6.84956 10.8782 6.69879 11.1796 6.45756 11.399C6.21633 11.6184 5.90197 11.74 5.5759 11.74C5.24983 11.74 4.93547 11.6184 4.69424 11.399C4.45301 11.1796 4.30223 10.8782 4.27138 10.5536C4.25287 10.3438 4.18407 10.1416 4.07082 9.96405C3.95757 9.78651 3.8032 9.63888 3.62079 9.53366C3.43838 9.42845 3.23329 9.36874 3.0229 9.3596C2.81252 9.35047 2.60303 9.39217 2.41218 9.48118C2.11588 9.6157 1.78012 9.63517 1.47026 9.53579C1.1604 9.43641 0.898596 9.22529 0.73581 8.94352C0.573024 8.66176 0.5209 8.3295 0.589581 8.01142C0.658263 7.69334 0.842836 7.41219 1.10738 7.2227C1.27965 7.10183 1.42027 6.94124 1.51735 6.75453C1.61443 6.56781 1.66511 6.36046 1.66511 6.15002C1.66511 5.93958 1.61443 5.73223 1.51735 5.54551C1.42027 5.3588 1.27965 5.19821 1.10738 5.07734C0.843208 4.88775 0.65896 4.60671 0.590444 4.28885C0.521929 3.97099 0.57404 3.639 0.736651 3.35742C0.899261 3.07584 1.16075 2.86477 1.47031 2.76523C1.77987 2.6657 2.11537 2.68481 2.41162 2.81886C2.60244 2.90775 2.81188 2.94936 3.02219 2.94017C3.2325 2.93097 3.4375 2.87124 3.61984 2.76604C3.80218 2.66083 3.95649 2.51325 4.0697 2.33577C4.18292 2.15829 4.25171 1.95615 4.27026 1.74646" stroke="#B71C1C" stroke-width="1.12" stroke-linecap="round" stroke-linejoin="round"/>
</svg>
