<svg width="11" height="12" viewBox="0 0 11 12" fill="none" xmlns="http://www.w3.org/2000/svg">
<path d="M4.06792 1.66335C4.0973 1.3542 4.24089 1.06711 4.47064 0.858169C4.70038 0.649228 4.99977 0.533447 5.31032 0.533447C5.62086 0.533447 5.92025 0.649228 6.15 0.858169C6.37974 1.06711 6.52333 1.3542 6.55272 1.66335C6.57038 1.86306 6.6359 2.05558 6.74372 2.2246C6.85155 2.39363 6.99851 2.53418 7.17216 2.63438C7.34582 2.73458 7.54106 2.79146 7.74136 2.80022C7.94165 2.80897 8.14111 2.76935 8.32285 2.68469C8.60504 2.55657 8.92481 2.53803 9.21992 2.63268C9.51502 2.72733 9.76436 2.92839 9.91939 3.19674C10.0744 3.46509 10.1241 3.78152 10.0587 4.08446C9.99325 4.38739 9.81746 4.65515 9.56552 4.83562C9.40145 4.95074 9.26753 5.10368 9.17507 5.2815C9.08261 5.45932 9.03434 5.6568 9.03434 5.85722C9.03434 6.05764 9.08261 6.25512 9.17507 6.43294C9.26753 6.61076 9.40145 6.7637 9.56552 6.87882C9.81746 7.05929 9.99325 7.32705 10.0587 7.62998C10.1241 7.93292 10.0744 8.24935 9.91939 8.5177C9.76436 8.78605 9.51502 8.98711 9.21992 9.08176C8.92481 9.17641 8.60504 9.15787 8.32285 9.02975C8.14111 8.94509 7.94165 8.90547 7.74136 8.91422C7.54106 8.92298 7.34582 8.97986 7.17216 9.08006C6.99851 9.18025 6.85155 9.32081 6.74372 9.48984C6.6359 9.65886 6.57038 9.85138 6.55272 10.0511C6.52333 10.3602 6.37974 10.6473 6.15 10.8563C5.92025 11.0652 5.62086 11.181 5.31032 11.181C4.99977 11.181 4.70038 11.0652 4.47064 10.8563C4.24089 10.6473 4.0973 10.3602 4.06792 10.0511C4.05029 9.85131 3.98477 9.65872 3.87691 9.48963C3.76905 9.32055 3.62204 9.17995 3.44831 9.07974C3.27458 8.97953 3.07926 8.92267 2.87889 8.91397C2.67852 8.90527 2.47901 8.94498 2.29725 9.02975C2.01506 9.15787 1.69529 9.17641 1.40018 9.08176C1.10508 8.98711 0.855742 8.78605 0.700708 8.5177C0.545674 8.24935 0.496031 7.93292 0.561442 7.62998C0.626853 7.32705 0.802637 7.05929 1.05458 6.87882C1.21865 6.7637 1.35257 6.61076 1.44503 6.43294C1.53749 6.25512 1.58576 6.05764 1.58576 5.85722C1.58576 5.6568 1.53749 5.45932 1.44503 5.2815C1.35257 5.10368 1.21865 4.95074 1.05458 4.83562C0.802991 4.65506 0.627517 4.3874 0.562264 4.08468C0.497011 3.78195 0.546641 3.46577 0.701508 3.1976C0.856375 2.92943 1.10542 2.72841 1.40023 2.63361C1.69505 2.53882 2.01457 2.55702 2.29672 2.68469C2.47845 2.76935 2.67791 2.80897 2.87821 2.80022C3.07851 2.79146 3.27375 2.73458 3.4474 2.63438C3.62106 2.53418 3.76802 2.39363 3.87585 2.2246C3.98367 2.05558 4.04919 1.86306 4.06685 1.66335" stroke="#B71C1C" stroke-width="1.06667" stroke-linecap="round" stroke-linejoin="round"/>
</svg>
