<svg width="10" height="12" viewBox="0 0 10 12" fill="none" xmlns="http://www.w3.org/2000/svg">
<path d="M8.84002 6.24025C8.84002 8.84025 7.02002 10.1403 4.85682 10.8943C4.74354 10.9326 4.6205 10.9308 4.50842 10.8891C2.34002 10.1403 0.52002 8.84025 0.52002 6.24025V2.60025C0.52002 2.46234 0.574805 2.33008 0.672324 2.23256C0.769843 2.13504 0.902107 2.08025 1.04002 2.08025C2.08002 2.08025 3.38002 1.45625 4.28482 0.665853C4.39498 0.571733 4.53512 0.52002 4.68002 0.52002C4.82492 0.52002 4.96506 0.571733 5.07522 0.665853C5.98522 1.46145 7.28002 2.08025 8.32002 2.08025C8.45793 2.08025 8.5902 2.13504 8.68772 2.23256C8.78524 2.33008 8.84002 2.46234 8.84002 2.60025V6.24025Z" stroke="#B71C1C" stroke-width="1.04" stroke-linecap="round" stroke-linejoin="round"/>
</svg>
