<svg width="10" height="12" viewBox="0 0 10 12" fill="none" xmlns="http://www.w3.org/2000/svg">
<path d="M9.06666 6.40035C9.06666 9.06702 7.19999 10.4004 4.98133 11.1737C4.86515 11.2131 4.73895 11.2112 4.62399 11.1684C2.39999 10.4004 0.533325 9.06702 0.533325 6.40035V2.66702C0.533325 2.52557 0.589516 2.38992 0.689535 2.2899C0.789554 2.18988 0.92521 2.13369 1.06666 2.13369C2.13333 2.13369 3.46666 1.49369 4.39466 0.68302C4.50765 0.586486 4.65138 0.533447 4.79999 0.533447C4.9486 0.533447 5.09234 0.586486 5.20533 0.68302C6.13866 1.49902 7.46666 2.13369 8.53333 2.13369C8.67477 2.13369 8.81043 2.18988 8.91045 2.2899C9.01047 2.38992 9.06666 2.52557 9.06666 2.66702V6.40035Z" stroke="#B71C1C" stroke-width="1.06667" stroke-linecap="round" stroke-linejoin="round"/>
</svg>
