<svg width="11" height="12" viewBox="0 0 11 12" fill="none" xmlns="http://www.w3.org/2000/svg">
<path d="M3.96625 1.62168C3.9949 1.32025 4.1349 1.04034 4.3589 0.836623C4.5829 0.632905 4.8748 0.52002 5.17759 0.52002C5.48037 0.52002 5.77227 0.632905 5.99627 0.836623C6.22027 1.04034 6.36027 1.32025 6.38893 1.62168C6.40615 1.81639 6.47003 2.0041 6.57516 2.16889C6.68029 2.33369 6.82357 2.47074 6.99289 2.56843C7.1622 2.66612 7.35256 2.72158 7.54785 2.73012C7.74314 2.73866 7.93761 2.70002 8.11481 2.61748C8.38994 2.49256 8.70172 2.47449 8.98945 2.56677C9.27718 2.65905 9.52028 2.85509 9.67144 3.11673C9.82259 3.37837 9.871 3.6869 9.80722 3.98225C9.74344 4.27761 9.57205 4.53868 9.32641 4.71464C9.16644 4.82688 9.03587 4.97599 8.94572 5.14937C8.85557 5.32275 8.80851 5.51529 8.80851 5.7107C8.80851 5.90611 8.85557 6.09865 8.94572 6.27203C9.03587 6.4454 9.16644 6.59452 9.32641 6.70676C9.57205 6.88272 9.74344 7.14378 9.80722 7.43914C9.871 7.7345 9.82259 8.04302 9.67144 8.30466C9.52028 8.5663 9.27718 8.76234 8.98945 8.85463C8.70172 8.94691 8.38994 8.92883 8.11481 8.80392C7.93761 8.72138 7.74314 8.68274 7.54785 8.69128C7.35256 8.69981 7.1622 8.75527 6.99289 8.85297C6.82357 8.95066 6.68029 9.0877 6.57516 9.2525C6.47003 9.4173 6.40615 9.605 6.38893 9.79972C6.36027 10.1011 6.22027 10.3811 5.99627 10.5848C5.77227 10.7885 5.48037 10.9014 5.17759 10.9014C4.8748 10.9014 4.5829 10.7885 4.3589 10.5848C4.1349 10.3811 3.9949 10.1011 3.96625 9.79972C3.94906 9.60493 3.88518 9.41716 3.78002 9.2523C3.67486 9.08744 3.53151 8.95036 3.36213 8.85265C3.19274 8.75495 3.00231 8.69951 2.80695 8.69103C2.61159 8.68254 2.41706 8.72127 2.23985 8.80392C1.96471 8.92883 1.65294 8.94691 1.36521 8.85463C1.07748 8.76234 0.834376 8.5663 0.683218 8.30466C0.532059 8.04302 0.483658 7.7345 0.547433 7.43914C0.611209 7.14378 0.782599 6.88272 1.02825 6.70676C1.18821 6.59452 1.31879 6.4454 1.40893 6.27203C1.49908 6.09865 1.54614 5.90611 1.54614 5.7107C1.54614 5.51529 1.49908 5.32275 1.40893 5.14937C1.31879 4.97599 1.18821 4.82688 1.02825 4.71464C0.782944 4.53859 0.611856 4.27763 0.548235 3.98247C0.484614 3.68731 0.533003 3.37904 0.683998 3.11757C0.834993 2.8561 1.07781 2.66011 1.36525 2.56768C1.6527 2.47526 1.96424 2.49301 2.23933 2.61748C2.41652 2.70002 2.61099 2.73866 2.80628 2.73012C3.00157 2.72158 3.19193 2.66612 3.36125 2.56843C3.53056 2.47074 3.67385 2.33369 3.77898 2.16889C3.88411 2.0041 3.94799 1.81639 3.96521 1.62168" stroke="#B71C1C" stroke-width="1.04" stroke-linecap="round" stroke-linejoin="round"/>
</svg>
