<svg width="11" height="14" viewBox="0 0 11 14" fill="none" xmlns="http://www.w3.org/2000/svg">
<path d="M10.2 7.20037C10.2 10.2004 8.09998 11.7004 5.60398 12.5704C5.47327 12.6147 5.3313 12.6125 5.20198 12.5644C2.69998 11.7004 0.599976 10.2004 0.599976 7.20037V3.00037C0.599976 2.84124 0.66319 2.68863 0.775712 2.5761C0.888233 2.46358 1.04085 2.40037 1.19998 2.40037C2.39998 2.40037 3.89998 1.68037 4.94398 0.768367C5.07109 0.659767 5.23279 0.600098 5.39998 0.600098C5.56716 0.600098 5.72886 0.659767 5.85598 0.768367C6.90598 1.68637 8.39998 2.40037 9.59998 2.40037C9.75911 2.40037 9.91172 2.46358 10.0242 2.5761C10.1368 2.68863 10.2 2.84124 10.2 3.00037V7.20037Z" stroke="#B71C1C" stroke-width="1.2" stroke-linecap="round" stroke-linejoin="round"/>
</svg>
