<svg width="12" height="14" viewBox="0 0 12 14" fill="none" xmlns="http://www.w3.org/2000/svg">
<path d="M4.57639 1.87124C4.60945 1.52345 4.77099 1.20047 5.02945 0.96541C5.28791 0.730351 5.62473 0.600098 5.97409 0.600098C6.32345 0.600098 6.66027 0.730351 6.91873 0.96541C7.17719 1.20047 7.33873 1.52345 7.37179 1.87124C7.39166 2.09591 7.46537 2.31249 7.58667 2.50265C7.70798 2.6928 7.87331 2.85093 8.06867 2.96365C8.26403 3.07637 8.48368 3.14036 8.70901 3.15021C8.93435 3.16007 9.15874 3.11548 9.36319 3.02024C9.68066 2.87611 10.0404 2.85525 10.3724 2.96173C10.7044 3.06821 10.9849 3.29441 11.1593 3.5963C11.3337 3.8982 11.3896 4.25418 11.316 4.59498C11.2424 4.93578 11.0446 5.23701 10.7612 5.44004C10.5766 5.56955 10.426 5.74161 10.3219 5.94166C10.2179 6.14171 10.1636 6.36387 10.1636 6.58934C10.1636 6.81482 10.2179 7.03698 10.3219 7.23703C10.426 7.43708 10.5766 7.60913 10.7612 7.73864C11.0446 7.94167 11.2424 8.2429 11.316 8.5837C11.3896 8.9245 11.3337 9.28049 11.1593 9.58238C10.9849 9.88427 10.7044 10.1105 10.3724 10.217C10.0404 10.3234 9.68066 10.3026 9.36319 10.1584C9.15874 10.0632 8.93435 10.0186 8.70901 10.0285C8.48368 10.0383 8.26403 10.1023 8.06867 10.215C7.87331 10.3278 7.70798 10.4859 7.58667 10.676C7.46537 10.8662 7.39166 11.0828 7.37179 11.3074C7.33873 11.6552 7.17719 11.9782 6.91873 12.2133C6.66027 12.4483 6.32345 12.5786 5.97409 12.5786C5.62473 12.5786 5.28791 12.4483 5.02945 12.2133C4.77099 11.9782 4.60945 11.6552 4.57639 11.3074C4.55656 11.0827 4.48285 10.866 4.36151 10.6758C4.24017 10.4856 4.07477 10.3274 3.87933 10.2147C3.68389 10.1019 3.46415 10.038 3.23874 10.0282C3.01332 10.0184 2.78887 10.0631 2.58439 10.1584C2.26692 10.3026 1.90719 10.3234 1.57519 10.217C1.2432 10.1105 0.962695 9.88427 0.788281 9.58238C0.613868 9.28049 0.55802 8.9245 0.631607 8.5837C0.705194 8.2429 0.902952 7.94167 1.18639 7.73864C1.37096 7.60913 1.52163 7.43708 1.62564 7.23703C1.72966 7.03698 1.78396 6.81482 1.78396 6.58934C1.78396 6.36387 1.72966 6.14171 1.62564 5.94166C1.52163 5.74161 1.37096 5.56955 1.18639 5.44004C0.90335 5.23691 0.705941 4.9358 0.632532 4.59523C0.559123 4.25466 0.614956 3.89897 0.789182 3.59727C0.963407 3.29557 1.24358 3.06943 1.57525 2.96279C1.90691 2.85614 2.26638 2.87662 2.58379 3.02024C2.78825 3.11548 3.01264 3.16007 3.23797 3.15021C3.46331 3.14036 3.68295 3.07637 3.87831 2.96365C4.07368 2.85093 4.23901 2.6928 4.36031 2.50265C4.48161 2.31249 4.55532 2.09591 4.57519 1.87124" stroke="#B71C1C" stroke-width="1.2" stroke-linecap="round" stroke-linejoin="round"/>
</svg>
