<svg width="12" height="13" viewBox="0 0 12 13" fill="none" xmlns="http://www.w3.org/2000/svg">
<path d="M4.47472 1.82932C4.50705 1.48925 4.665 1.17346 4.91771 0.94362C5.17043 0.713784 5.49976 0.586426 5.84136 0.586426C6.18296 0.586426 6.51229 0.713784 6.76501 0.94362C7.01773 1.17346 7.17568 1.48925 7.208 1.82932C7.22743 2.049 7.2995 2.26077 7.41811 2.44669C7.53671 2.63262 7.69837 2.78724 7.88939 2.89745C8.08041 3.00767 8.29518 3.07024 8.51551 3.07987C8.73583 3.08951 8.95524 3.04591 9.15515 2.95279C9.46556 2.81186 9.8173 2.79147 10.1419 2.89558C10.4665 2.99969 10.7408 3.22087 10.9113 3.51605C11.0819 3.81123 11.1365 4.15931 11.0645 4.49254C10.9926 4.82576 10.7992 5.1203 10.5221 5.31882C10.3416 5.44545 10.1943 5.61368 10.0926 5.80928C9.99089 6.00489 9.93779 6.22211 9.93779 6.44258C9.93779 6.66304 9.99089 6.88026 10.0926 7.07587C10.1943 7.27147 10.3416 7.43971 10.5221 7.56634C10.7992 7.76485 10.9926 8.05939 11.0645 8.39261C11.1365 8.72584 11.0819 9.07392 10.9113 9.3691C10.7408 9.66429 10.4665 9.88546 10.1419 9.98957C9.8173 10.0937 9.46556 10.0733 9.15515 9.93236C8.95524 9.83924 8.73583 9.79565 8.51551 9.80528C8.29518 9.81491 8.08041 9.87748 7.88939 9.9877C7.69837 10.0979 7.53671 10.2525 7.41811 10.4385C7.2995 10.6244 7.22743 10.8361 7.208 11.0558C7.17568 11.3959 7.01773 11.7117 6.76501 11.9415C6.51229 12.1714 6.18296 12.2987 5.84136 12.2987C5.49976 12.2987 5.17043 12.1714 4.91771 11.9415C4.665 11.7117 4.50705 11.3959 4.47472 11.0558C4.45533 10.8361 4.38326 10.6242 4.26462 10.4382C4.14597 10.2522 3.98425 10.0976 3.79315 9.98735C3.60205 9.87712 3.3872 9.81457 3.16679 9.805C2.94639 9.79543 2.72692 9.83912 2.52699 9.93236C2.21658 10.0733 1.86483 10.0937 1.54021 9.98957C1.2156 9.88546 0.941329 9.66429 0.770791 9.3691C0.600253 9.07392 0.545646 8.72584 0.617598 8.39261C0.68955 8.05939 0.882913 7.76485 1.16005 7.56634C1.34052 7.43971 1.48784 7.27147 1.58955 7.07587C1.69125 6.88026 1.74435 6.66304 1.74435 6.44258C1.74435 6.22211 1.69125 6.00489 1.58955 5.80928C1.48784 5.61368 1.34052 5.44545 1.16005 5.31882C0.883302 5.1202 0.690281 4.82578 0.618503 4.49278C0.546725 4.15978 0.601318 3.81199 0.771671 3.51699C0.942025 3.222 1.21597 3.00088 1.54027 2.89661C1.86456 2.79234 2.21604 2.81236 2.5264 2.95279C2.72631 3.04591 2.94572 3.08951 3.16604 3.07987C3.38637 3.07024 3.60113 3.00767 3.79216 2.89745C3.98318 2.78724 4.14483 2.63262 4.26344 2.44669C4.38205 2.26077 4.45412 2.049 4.47355 1.82932" stroke="#B71C1C" stroke-width="1.17333" stroke-linecap="round" stroke-linejoin="round"/>
</svg>
