<svg width="11" height="13" viewBox="0 0 11 13" fill="none" xmlns="http://www.w3.org/2000/svg">
<path d="M9.97334 7.04002C9.97334 9.97336 7.92 11.44 5.47947 12.2907C5.35167 12.334 5.21285 12.3319 5.0864 12.2848C2.64 11.44 0.58667 9.97336 0.58667 7.04002V2.93336C0.58667 2.77776 0.648479 2.62854 0.758501 2.51852C0.868522 2.4085 1.01774 2.34669 1.17334 2.34669C2.34667 2.34669 3.81334 1.64269 4.83414 0.750956C4.95842 0.644769 5.11653 0.586426 5.28 0.586426C5.44348 0.586426 5.60158 0.644769 5.72587 0.750956C6.75254 1.64856 8.21334 2.34669 9.38667 2.34669C9.54226 2.34669 9.69149 2.4085 9.80151 2.51852C9.91153 2.62854 9.97334 2.77776 9.97334 2.93336V7.04002Z" stroke="#B71C1C" stroke-width="1.17333" stroke-linecap="round" stroke-linejoin="round"/>
</svg>
