<svg width="1184" height="87" viewBox="0 0 1184 87" fill="none" xmlns="http://www.w3.org/2000/svg">
<path d="M0.0660248 83.4307C35.9607 85.8056 75.6424 85.9788 112.854 84.0739C120.181 83.7028 127.344 83.2575 134.424 82.7133C163.403 80.5116 189.419 77.0234 212.635 73.0158C230.335 69.9234 246.554 66.559 262.854 62.8977C272.404 60.7454 282.037 58.4942 292.163 56.0451C315.215 50.4294 338.513 43.6263 361.565 37.3179C368.151 35.512 374.737 33.7556 381.488 32.0486C398.118 27.843 415.736 24.0828 434.095 21.2131C460.193 17.1807 487.772 14.7563 516.175 15.548C546.307 16.3643 575.122 20.6194 607.723 21.98C612.58 22.1779 617.438 22.3263 622.295 22.4006C653.497 22.9695 683.3 21.2379 713.267 18.1455C761.099 13.2473 808.849 4.78668 857.01 1.94174C873.475 0.976931 890.188 0.680065 907.065 1.39748C940.737 2.83232 969.963 8.15113 1001.49 12.2083C1010.8 13.3957 1020.26 14.4842 1030.06 15.3253C1086.46 20.1493 1151.25 15.3006 1183.68 4.14346" stroke="#719DAA" stroke-width="2" stroke-miterlimit="10"/>
</svg>
