<svg width="1238" height="125" viewBox="0 0 1238 125" fill="none" xmlns="http://www.w3.org/2000/svg">
<path d="M0.148575 77.0331C45.2639 70.2547 99.6822 68.1024 149.819 71.17C159.699 71.7637 169.331 72.5801 178.716 73.5449C217.163 77.5773 251.164 84.6525 274.957 93.7316C292.904 100.559 307.394 108.921 326.988 115.056C339.172 118.866 353.332 121.835 371.691 122.973C412.114 125.471 454.677 116.541 474.436 105.26C480.116 102.019 484.315 98.6299 487.443 95.1665C495.347 86.5822 496.746 77.4783 497.57 68.7704C498.722 56.5247 498.969 44.0565 515.846 33.0478C530.583 23.4492 561.455 15.2607 597.762 13.7764C603.195 13.5538 608.711 13.4796 614.31 13.5785C649.957 14.2217 679.513 21.2227 713.102 24.2903C768.015 29.3123 828.772 23.3008 882.202 16.2998C899.656 14.0238 917.109 11.6242 934.727 9.44717C970.951 4.96948 1007.34 1.43186 1046.36 1.03604C1057.89 0.912347 1069.41 1.11026 1080.86 1.58029C1146.64 4.25206 1209.29 15.6566 1236.87 31.1429" stroke="#F04164" stroke-width="2" stroke-miterlimit="10"/>
</svg>
