<svg width="1253" height="109" viewBox="0 0 1253 109" fill="none" xmlns="http://www.w3.org/2000/svg">
<path d="M0.183311 59.759C44.2284 51.5458 97.988 48.305 148.866 50.6552C168.378 51.5458 187.395 53.2775 205.26 55.7266C233.993 59.66 259.761 65.4241 280.014 72.5736C305.206 81.4053 325.047 92.884 353.285 100.429C361.353 102.582 370.244 104.387 380.206 105.699C418.406 110.696 457.182 105.946 482.538 97.6833C502.791 91.0781 515.634 81.4547 522.549 71.4851C524.772 68.2196 526.666 64.9541 528.477 61.6886C535.557 48.404 541.979 34.7235 562.807 22.3789C581.66 11.1723 618.543 1.20269 660.612 1.00479C695.766 0.806876 726.145 6.79361 759.57 10.4302C813.823 16.318 869.806 14.9326 917.391 12.4588C922.742 12.1866 928.011 11.8898 933.28 11.5929C975.184 9.19326 1016.27 6.5215 1063.03 8.17898C1074.88 8.59954 1086.9 9.34169 1098.92 10.3807C1158.28 15.4521 1219.94 27.0793 1251.97 38.8549" stroke="#FF515E" stroke-width="2" stroke-miterlimit="10"/>
</svg>
