<svg width="1261" height="99" viewBox="0 0 1261 99" fill="none" xmlns="http://www.w3.org/2000/svg">
<path d="M0.200134 54.9688C42.1047 46.4093 93.5592 42.3274 143.449 43.3912C162.632 43.787 181.485 44.9497 199.597 46.8051C228.576 49.7737 255.332 54.5483 277.725 60.7082C305.469 68.303 328.356 78.4211 355.113 86.3374C362.605 88.5392 370.59 90.5677 379.399 92.2499C413.318 98.8304 447.319 98.5583 477.451 93.8085C504.454 89.5534 525.695 80.3754 539.279 70.5047C543.724 67.2639 547.841 63.9984 551.792 60.7082C567.764 47.3741 582.665 33.5947 609.586 21.3491C631.65 11.3052 667.38 2.37456 707.638 1.16237C741.639 0.148084 772.923 4.08153 805.772 7.52019C858.544 13.0864 908.105 16.0797 949.433 18.6031C954.043 18.8752 958.571 19.1473 963.099 19.4195C998.994 21.547 1033.32 23.724 1074.16 28.2759C1084.53 29.4386 1095.15 30.7745 1106.02 32.2588C1159.7 39.5567 1222.84 49.6501 1260.47 55.0431" stroke="#FF6C61" stroke-width="2" stroke-miterlimit="10"/>
</svg>
