<svg width="1206" height="83" viewBox="0 0 1206 83" fill="none" xmlns="http://www.w3.org/2000/svg">
<path d="M0.0355072 77.3544C39.7172 75.9443 85.4911 75.1774 128.054 75.3259C136.369 75.3506 144.602 75.4248 152.67 75.499C185.601 75.8454 214.827 76.7607 238.29 78.0966C256.073 79.1109 271.633 80.4715 289.251 80.9168C299.871 81.1889 311.397 81.1394 324.899 80.1499C355.113 77.9234 386.397 70.205 407.967 61.8433C414.141 59.4437 419.822 57.0193 425.009 54.5949C438.016 48.5834 448.966 42.6214 460.162 37.3521C475.969 29.9305 491.858 23.1521 515.98 19.3177C539.279 15.6069 569.41 14.9884 603.576 15.1616C608.681 15.1863 613.785 15.2358 618.971 15.3347C651.985 15.9285 681.705 17.7591 713.154 17.2396C763.867 16.3738 816.968 8.97691 867.353 4.42501C884.23 2.91596 901.271 1.77799 918.395 1.28322C953.137 0.318415 985.245 1.95115 1019.9 4.17763C1030.11 4.82083 1040.4 5.563 1050.94 6.23094C1111.21 10.1644 1175.09 11.995 1205.55 11.8219" stroke="#A5778D" stroke-width="2" stroke-miterlimit="10"/>
</svg>
