<svg width="1200" height="80" viewBox="0 0 1200 80" fill="none" xmlns="http://www.w3.org/2000/svg">
<path d="M0.0083313 78.7477C38.6198 78.4261 82.6648 77.9313 123.664 77.486C131.732 77.3871 139.635 77.3129 147.374 77.2139C179.152 76.8428 207.473 76.4965 230.936 76.2986C248.719 76.1501 264.443 76.1501 281.65 75.4327C291.941 75.0122 302.972 74.3442 315.486 72.9341C343.642 69.7428 372.621 62.2718 394.685 54.5039C401.024 52.2774 406.869 50.0262 412.55 47.8244C426.628 42.3325 439.471 36.9889 452.643 32.4123C471.332 25.9555 490.679 20.3646 515.953 17.9155C541.31 15.4416 570.948 16.258 604.619 16.8022C609.641 16.8764 614.663 16.9507 619.768 17.0496C652.287 17.6433 682.007 18.4597 713.044 17.198C762.935 15.1695 814.554 7.47577 864.279 3.41863C881.074 2.05801 897.951 1.16743 915.075 1.019C949.57 0.746877 980.855 3.44338 1014.53 6.16463C1024.49 6.981 1034.53 7.79737 1044.82 8.53953C1104.02 12.7451 1168.15 12.6461 1199.1 9.33117" stroke="#968295" stroke-width="2" stroke-miterlimit="10"/>
</svg>
