<svg width="1271" height="91" viewBox="0 0 1271 91" fill="none" xmlns="http://www.w3.org/2000/svg">
<path d="M0.222923 49.8551C39.493 40.875 88.1484 35.8036 137.051 35.3088C155.821 35.1109 174.592 35.6057 192.869 36.7436C222.259 38.5743 250.251 42.1367 274.949 47.0844C305.739 53.2196 332.496 61.6802 357.276 70.0171C364.109 72.293 371.025 74.569 378.269 76.7212C407.002 85.2561 436.145 90.7728 471.135 89.7832C506.865 88.7937 537.49 79.7146 559.225 69.9181C566.387 66.7268 573.138 63.4366 579.724 60.1216C606.316 46.6886 630.849 32.6865 665.756 20.6883C691.113 11.9556 726.02 4.28659 764.055 1.93643C796.739 -0.116879 829.011 1.39218 861.118 4.65768C912.079 9.82805 954.066 18.0907 987.738 26.6008C991.525 27.5409 995.147 28.5057 998.77 29.4458C1027.42 36.991 1053.6 45.0063 1087.35 53.0464C1095.92 55.075 1104.89 57.1283 1114.44 59.1568C1161.37 69.1018 1226.32 77.4139 1270.7 75.0885" stroke="#FF8D64" stroke-width="2" stroke-miterlimit="10"/>
</svg>
