<svg width="1251" height="112" viewBox="0 0 1251 112" fill="none" xmlns="http://www.w3.org/2000/svg">
<path d="M0.180084 60.7685C44.6368 52.6295 98.8904 49.5372 149.933 52.1595C169.527 53.1491 188.545 55.0044 206.41 57.5525C235.06 61.6591 260.581 67.6459 280.504 74.9932C305.12 84.0476 324.385 95.8231 352.952 103.294C361.103 105.422 370.159 107.178 380.45 108.415C419.473 113.115 459.401 107.475 483.606 98.4702C502.705 91.3949 513.737 81.6974 519.171 71.703C520.982 68.4375 522.382 65.172 523.699 61.9065C529.05 48.6466 533.66 34.9662 553.254 22.6216C571.449 11.1924 608.578 1.02481 650.977 1.00007C686.295 0.975333 716.509 7.38263 750.099 11.0192C804.682 16.9565 861.899 14.73 910.801 11.2419C916.235 10.846 921.669 10.4502 927.102 10.0297C970.159 6.73943 1012.64 3.07811 1060.55 4.16661C1072.74 4.43873 1085.01 5.08194 1097.27 6.02201C1157.78 10.6481 1219.12 22.5721 1249.99 35.6341" stroke="#FF4C5E" stroke-width="2" stroke-miterlimit="10"/>
</svg>
