<svg width="1194" height="82" viewBox="0 0 1194 82" fill="none" xmlns="http://www.w3.org/2000/svg">
<path d="M0.0197601 80.4949C37.561 81.237 79.8772 81.0144 119.312 80.0001C127.051 79.8022 134.707 79.5548 142.199 79.3074C172.907 78.1942 200.322 76.6109 223.62 74.8792C241.321 73.5681 257.21 72.1827 274.169 70.3026C284.131 69.1893 294.669 67.8782 306.195 66.0475C332.292 61.8914 359.049 54.6925 381.442 47.4936C387.863 45.4403 394.038 43.387 400.13 41.3831C415.196 36.4107 430.015 31.7103 445.245 27.8016C466.897 22.3097 489.62 17.9804 516.047 16.8177C543.379 15.6302 572.606 17.8567 605.866 18.7226C610.805 18.8463 615.827 18.9452 620.767 19.0442C652.71 19.6132 682.512 19.4152 713.138 17.4362C762.205 14.2449 812.26 6.25431 861.41 2.69195C878.122 1.5045 894.834 0.836554 911.876 1.03446C946.042 1.45502 976.503 5.19055 1009.35 8.45605C1019.07 9.42085 1028.86 10.3609 1038.99 11.1278C1097.03 15.5808 1161.49 13.5769 1193.02 7.1449" stroke="#878D9E" stroke-width="2" stroke-miterlimit="10"/>
</svg>
