<svg width="1244" height="134" viewBox="0 0 1244 134" fill="none" xmlns="http://www.w3.org/2000/svg">
<path d="M0.167915 77.7211C46.3535 69.8542 102.501 67.4298 154.202 71.0664C205.904 74.703 252.583 84.3758 282.303 97.5862C311.447 110.549 330.876 128.188 381.096 132.27C423.577 135.708 468.445 126.53 487.71 114.656C506.974 102.781 506.81 88.9772 505.081 75.7667C503.352 62.5563 500.717 48.9253 515.866 36.5313C531.014 24.1373 569.543 13.2028 613.423 13.9697C649.647 14.6129 679.12 22.6529 713.204 26.438C768.939 32.6226 831.261 26.8832 885.268 19.4122C939.274 11.9411 992.54 2.54046 1051.73 1.1551C1130.93 -0.675562 1211.45 13.8707 1243.14 35.7397" stroke="#FF365C" stroke-width="2" stroke-miterlimit="10"/>
</svg>
