<svg width="1265" height="96" viewBox="0 0 1265 96" fill="none" xmlns="http://www.w3.org/2000/svg">
<path d="M0.207199 53.2036C41.2061 44.5203 91.755 40.0921 141.316 40.6363C160.334 40.8343 179.187 41.7743 197.381 43.3823C226.525 45.9799 253.693 50.3586 276.827 56.098C305.559 63.198 329.763 72.7718 355.861 80.8119C363.106 83.0383 370.762 85.1411 378.995 86.9965C411.267 94.2449 443.622 95.8282 475.317 92.3895C505.285 89.1735 529.571 80.0697 545.954 70.2237C551.305 67.0077 556.327 63.7175 561.102 60.4272C580.614 47.0684 598.808 33.2395 628.364 21.0434C651.58 11.4448 686.981 2.9347 726.498 1.32669C760.087 -0.0339378 791.619 3.08314 824.302 6.47233C876.416 11.9148 923.507 16.6646 962.283 21.1671C966.646 21.6618 970.845 22.1566 975.126 22.6514C1008.55 26.5848 1040.25 30.7162 1078.69 36.4308C1088.49 37.8904 1098.53 39.4736 1108.99 41.1311C1160.44 49.3196 1224.17 58.8192 1264.09 61.6147" stroke="#FF7762" stroke-width="2" stroke-miterlimit="10"/>
</svg>
