<svg width="1212" height="90" viewBox="0 0 1212 90" fill="none" xmlns="http://www.w3.org/2000/svg">
<path d="M0.0605927 76.3708C40.8126 73.897 88.3154 72.8332 132.36 73.5754C141.005 73.7238 149.484 73.9217 157.8 74.1938C191.801 75.2823 222.015 77.4346 245.56 80.3043C263.343 82.4813 278.821 85.2273 296.768 86.8353C307.8 87.8001 319.819 88.3691 334.227 87.8001C366.499 86.5137 400.006 78.5478 421.247 69.5925C427.339 67.0197 432.69 64.3974 437.547 61.7751C449.567 55.2441 458.541 48.6636 467.679 42.7016C480.522 34.3152 493.036 26.3741 516.005 21.1295C537.41 16.2313 567.871 14.1038 602.449 13.9553C607.635 13.9306 612.822 13.9553 618.091 14.0543C651.68 14.648 681.318 17.5177 713.179 17.7156C764.716 18.0372 819.381 10.9125 870.342 5.86581C887.383 4.20832 904.425 2.79823 921.714 1.98186C956.785 0.324371 989.716 0.918092 1025.28 2.62506C1035.74 3.11983 1046.27 3.73829 1056.98 4.38149C1118.31 8.06754 1181.95 11.8031 1211.83 14.7717" stroke="#B46C85" stroke-width="2" stroke-miterlimit="10"/>
</svg>
