<svg width="1241" height="130" viewBox="0 0 1241 130" fill="none" xmlns="http://www.w3.org/2000/svg">
<path d="M0.158524 77.3551C45.7678 70.0325 101.092 67.7565 152.052 71.0963C162.014 71.7642 171.893 72.63 181.361 73.6938C220.384 78.0725 254.797 85.791 278.671 95.637C296.619 103.034 311.026 112.113 330.867 118.817C343.216 122.998 357.706 126.263 376.476 127.599C417.887 130.568 461.602 121.514 481.114 109.936C486.712 106.621 490.829 103.133 493.792 99.5704C501.12 90.714 501.614 81.3133 501.449 72.259C501.202 59.5433 499.967 46.4813 515.938 34.78C529.934 24.5877 560.807 15.657 597.278 13.9996C602.711 13.7522 608.31 13.678 613.99 13.7769C649.967 14.4201 679.44 21.9407 713.277 25.3546C768.601 30.9702 830.181 25.0825 883.859 17.8588C901.394 15.5086 918.848 12.9853 936.548 10.6351C972.937 5.81108 1009.74 1.75395 1049.25 1.08601C1060.86 0.8881 1072.55 1.03653 1084.08 1.48183C1150.35 4.00517 1212.92 16.3745 1240.17 33.4441" stroke="#F83B60" stroke-width="2" stroke-miterlimit="10"/>
</svg>
