<svg width="1254" height="107" viewBox="0 0 1254 107" fill="none" xmlns="http://www.w3.org/2000/svg">
<path d="M0.1866 58.7822C43.82 50.4948 97.1681 47.0809 147.717 49.1836C167.146 49.9753 186.164 51.5833 204.111 53.9335C232.843 57.669 258.859 63.2599 279.523 70.1867C305.209 78.771 325.708 89.9776 353.617 97.5971C361.603 99.7494 370.247 101.605 380.044 102.99C417.421 108.309 455.044 104.425 481.554 96.8797C503.124 90.7198 517.695 81.2201 525.928 71.2505C528.645 68.0097 530.95 64.7195 533.173 61.454C542.064 48.1694 550.215 34.4642 572.196 22.1443C591.79 11.1851 628.343 1.41339 670.001 1.01757C704.908 0.646491 735.451 6.23743 768.793 9.82452C822.718 15.6381 877.465 15.1433 923.816 13.659C929.002 13.4858 934.106 13.3127 939.293 13.1148C979.963 11.6304 1019.73 9.92347 1065.25 12.1499C1076.78 12.7189 1088.55 13.5848 1100.33 14.698C1158.53 20.2147 1220.52 31.5203 1253.62 42.0342" stroke="#FF575F" stroke-width="2" stroke-miterlimit="10"/>
</svg>
