<svg width="1216" height="93" viewBox="0 0 1216 93" fill="none" xmlns="http://www.w3.org/2000/svg">
<path d="M0.0728302 76.0649C41.4011 73.0468 89.7272 71.8593 134.595 72.8736C143.404 73.0715 152.049 73.3436 160.446 73.7147C195.024 75.1743 225.649 77.945 249.277 81.5816C267.06 84.3276 282.455 87.791 300.567 89.968C311.764 91.3039 324.03 92.1697 338.932 91.7986C372.192 90.9823 406.852 82.8927 427.927 73.6652C433.937 71.0182 439.206 68.2969 443.816 65.5757C455.26 58.7973 463.41 51.8953 471.478 45.5869C482.922 36.7305 493.789 28.1957 516.018 22.2337C536.517 16.7417 567.143 13.872 601.885 13.5504C607.071 13.5009 612.34 13.5257 617.609 13.6246C651.446 14.2183 681.084 17.6075 713.191 18.1765C765.222 19.0671 820.546 12.0908 871.836 6.79677C888.877 5.06507 906.001 3.53127 923.373 2.54173C958.609 0.537901 991.951 0.612117 1027.93 2.04696C1038.55 2.46751 1049.17 3.0365 1059.95 3.65497C1121.86 7.21733 1185.42 11.9177 1214.98 16.4448" stroke="#BC6781" stroke-width="2" stroke-miterlimit="10"/>
</svg>
