<svg width="1209" height="86" viewBox="0 0 1209 86" fill="none" xmlns="http://www.w3.org/2000/svg">
<path d="M0.0484924 76.7983C40.3065 74.844 86.9037 73.9534 130.208 74.3739C138.687 74.4481 147.085 74.5966 155.235 74.7697C188.742 75.4872 218.38 77.0209 241.926 79.1237C259.708 80.7317 275.186 82.785 292.969 83.7993C303.836 84.4178 315.526 84.6899 329.522 83.8983C360.724 82.1419 393.161 74.2997 414.566 65.6412C420.74 63.1673 426.174 60.644 431.196 58.1207C443.71 51.8618 453.671 45.5782 463.798 39.9625C478.123 32.0462 492.283 24.6741 515.828 20.1469C538.221 15.8424 568.518 14.457 602.848 14.4818C607.952 14.4818 613.139 14.5312 618.326 14.6302C651.586 15.2239 681.306 17.5741 713.002 17.4257C764.127 17.1535 818.052 9.88037 868.683 5.08108C885.642 3.49781 902.684 2.23614 919.89 1.56819C954.797 0.257049 987.316 1.3703 1022.39 3.32465C1032.68 3.89363 1043.13 4.56158 1053.75 5.22952C1114.59 9.03927 1178.32 11.8347 1208.45 13.2201" stroke="#AD7289" stroke-width="2" stroke-miterlimit="10"/>
</svg>
