<svg width="1197" height="81" viewBox="0 0 1197 81" fill="none" xmlns="http://www.w3.org/2000/svg">
<path d="M0.00585938 79.6694C38.041 79.892 81.2628 79.5209 121.521 78.7788C129.424 78.6303 137.245 78.4819 144.819 78.284C176.021 77.5418 203.93 76.577 227.311 75.6122C245.094 74.8701 260.901 74.1774 277.943 72.891C288.069 72.1241 298.854 71.1345 310.873 69.5018C338.041 65.8157 365.868 58.4931 388.096 51.0221C394.436 48.8698 400.528 46.7423 406.373 44.6147C420.945 39.3702 434.776 34.3482 449.018 30.1179C469.271 24.1559 490.182 19.1835 516.115 17.3775C542.46 15.5469 571.933 17.0807 605.358 17.7734C610.38 17.8723 615.319 17.9713 620.341 18.0455C652.614 18.6145 682.334 18.9361 713.124 17.3033C762.603 14.7058 813.399 6.86363 862.877 3.02915C879.59 1.74274 896.467 0.975842 913.509 1.00058C947.839 1.0748 978.712 4.29082 1011.97 7.28419C1021.77 8.17478 1031.73 9.04064 1041.94 9.80753C1100.56 14.1368 1164.85 13.0978 1196.14 8.19952" stroke="#8F8799" stroke-width="2" stroke-miterlimit="10"/>
</svg>
