<svg width="1275" height="90" viewBox="0 0 1275 90" fill="none" xmlns="http://www.w3.org/2000/svg">
<path d="M0.230415 48.3466C38.6772 39.2428 86.3447 33.825 134.835 32.8108C153.441 32.4149 172.212 32.6623 190.571 33.5776C220.044 35.0372 248.447 38.2038 273.968 42.7309C305.747 48.3713 333.738 56.263 357.942 64.773C364.528 67.0737 371.114 69.4486 377.865 71.7493C404.869 80.9521 432.366 87.9531 469.002 88.6705C507.448 89.4127 541.367 79.7152 565.818 69.9682C573.886 66.7769 581.46 63.4866 588.952 60.1717C619.084 46.7139 646.746 32.5881 684.452 20.7136C710.879 12.3767 745.539 5.17773 782.833 2.43175C815.105 0.0321039 847.707 0.724779 879.567 3.9408C929.952 8.98747 969.386 19.0066 1000.51 29.4958C1003.96 30.6585 1007.34 31.8459 1010.63 33.0087C1036.89 42.3599 1060.36 52.3295 1091.72 61.5075C1099.71 63.833 1108.19 66.1337 1117.25 68.3354C1161.87 79.1709 1227.48 86.8894 1274.08 81.9911" stroke="#FF9865" stroke-width="2" stroke-miterlimit="10"/>
</svg>
