<svg width="1203" height="80" viewBox="0 0 1203 80" fill="none" xmlns="http://www.w3.org/2000/svg">
<path d="M0.0220947 78.069C39.2098 77.2031 84.0782 76.5599 125.818 76.4115C134.051 76.3867 142.119 76.362 149.94 76.362C182.295 76.362 211.109 76.6341 234.49 77.2031C252.273 77.6237 267.915 78.3164 285.368 78.1679C295.824 78.0937 307.103 77.7226 320.11 76.5352C349.336 73.8139 379.386 66.2192 401.285 58.1544C407.542 55.829 413.305 53.5035 418.738 51.1781C432.322 45.414 444.177 39.7736 456.362 34.8506C473.568 27.8991 491.186 21.7144 515.967 18.5726C540.253 15.4803 570.22 15.5793 604.139 15.9503C609.161 15.9998 614.265 16.074 619.37 16.173C652.136 16.7667 681.856 18.1026 713.058 17.1873C763.36 15.7524 815.72 8.20715 865.775 3.87789C882.652 2.44305 899.529 1.42878 916.736 1.10718C951.313 0.488717 983.009 2.64097 1017.26 5.13957C1027.3 5.88173 1037.51 6.64862 1047.88 7.3413C1107.57 11.3984 1171.62 12.289 1202.33 10.5326" stroke="#9E7D91" stroke-width="2" stroke-miterlimit="10"/>
</svg>
