<svg width="1235" height="120" viewBox="0 0 1235 120" fill="none" xmlns="http://www.w3.org/2000/svg">
<path d="M0.13916 76.7311C44.6782 70.4722 98.2732 68.4684 147.67 71.2391C157.384 71.7834 166.852 72.5008 176.155 73.3914C214.108 77.0527 247.532 83.5095 271.325 91.8217C289.272 98.0558 303.927 105.725 323.274 111.291C335.376 114.754 349.207 117.401 367.072 118.341C406.424 120.345 447.917 111.563 467.84 100.554C473.521 97.3878 477.884 94.1224 481.259 90.7579C489.657 82.421 492.044 73.6635 493.856 65.2771C496.49 53.5263 498.219 41.6023 515.919 31.3358C531.397 22.3309 562.352 14.8846 598.411 13.5734C603.762 13.3755 609.278 13.326 614.876 13.425C650.277 14.0435 679.833 20.5497 713.258 23.2462C767.758 27.6992 827.775 21.5145 880.876 14.7609C898.329 12.5591 915.7 10.2832 933.236 8.27936C969.295 4.14802 1005.27 1.12991 1043.88 1.00621C1055.24 0.956736 1066.69 1.20412 1078.05 1.69889C1143.25 4.49435 1205.99 14.9341 1233.89 28.8619" stroke="#E94668" stroke-width="2" stroke-miterlimit="10"/>
</svg>
