<svg width="1248" height="121" viewBox="0 0 1248 121" fill="none" xmlns="http://www.w3.org/2000/svg">
<path d="M0.174004 67.5974C45.5363 59.5821 100.696 56.8361 152.068 59.9532C171.744 61.1654 190.844 63.2187 208.626 66.0141C237.112 70.5166 262.304 76.8991 281.404 84.6423C305.032 94.1914 322.979 106.511 352.205 113.834C360.603 115.937 369.988 117.619 380.773 118.707C421.525 122.789 463.841 115.392 485.658 104.928C502.452 96.9374 509.697 87.042 512.496 76.9981C513.402 73.7326 513.978 70.4423 514.39 67.2016C516.201 53.9664 517.189 40.3107 534.56 27.9414C551.272 16.0174 589.061 5.47877 632.2 5.84985C667.93 6.14672 697.815 13.3704 731.651 17.0812C786.811 23.1421 846.58 19.1592 898.035 13.6673C903.797 13.0488 909.56 12.4303 915.241 11.7871C960.686 6.69097 1005.88 1.07531 1056.19 1.00109C1068.95 0.976354 1081.79 1.37217 1094.47 2.13906C1157.28 5.87459 1217.96 18.3923 1246.61 34.0271" stroke="#FF415D" stroke-width="2" stroke-miterlimit="10"/>
</svg>
