<svg width="1246" height="128" viewBox="0 0 1246 128" fill="none" xmlns="http://www.w3.org/2000/svg">
<path d="M0.170929 72.6175C45.9449 64.6764 101.598 62.1035 153.135 65.468C172.893 66.7791 191.993 68.9314 209.776 71.8506C238.261 76.5262 263.206 83.1314 281.895 91.0725C305.029 100.869 322.4 113.461 351.873 120.709C360.435 122.812 369.985 124.445 381.017 125.434C422.592 129.195 466.143 120.907 486.807 109.75C502.449 101.265 507.883 91.2951 509.282 81.2512C509.776 77.9857 509.859 74.6955 509.859 71.4547C509.859 58.2443 509.035 44.5886 525.336 32.1946C541.308 20.0232 579.425 9.28661 622.976 9.88033C658.953 10.3504 688.673 17.9946 722.592 21.7301C778.081 27.8653 839.085 22.9918 891.775 16.5103C897.702 15.7929 903.547 15.026 909.393 14.2838C956.072 8.27232 1002.59 1.69186 1054.04 1.04865C1067.05 0.875482 1080.22 1.17235 1093.15 1.81555C1157.03 5.10579 1217.46 17.9204 1244.96 34.8416" stroke="#FF3B5C" stroke-width="2" stroke-miterlimit="10"/>
</svg>
