<svg width="1277" height="90" viewBox="0 0 1277 90" fill="none" xmlns="http://www.w3.org/2000/svg">
<path d="M0.235054 47.68C38.1879 38.502 85.4437 32.9358 133.77 31.6494C152.293 31.1547 171.064 31.3031 189.423 32.0947C218.978 33.3811 247.546 36.325 273.479 40.6543C305.834 46.0473 334.401 53.6668 358.276 62.2511C364.698 64.5765 371.119 66.9762 377.623 69.3511C403.721 78.8754 430.23 87.4103 467.936 88.1772C507.865 88.9935 543.348 79.766 569.198 70.0438C577.678 66.8525 585.746 63.5622 593.65 60.2473C625.592 46.7895 654.736 32.5895 693.842 20.7892C720.763 12.6502 755.34 5.69863 792.305 2.73C824.413 0.157181 857.097 0.454045 888.875 3.62059C938.93 8.61779 977.13 19.478 1007.01 31.0062C1010.31 32.2926 1013.6 33.579 1016.73 34.8654C1041.76 45.132 1063.9 56.0664 1094.12 65.8134C1101.77 68.2873 1110.01 70.7117 1118.81 72.9876C1162.28 84.2684 1228.15 91.6653 1275.9 85.5054" stroke="#FF9D65" stroke-width="2" stroke-miterlimit="10"/>
</svg>
