<svg width="1187" height="85" viewBox="0 0 1187 85" fill="none" xmlns="http://www.w3.org/2000/svg">
<path d="M0.0501251 82.4061C36.5211 84.2367 77.0261 84.2862 115.061 82.6782C122.553 82.3566 129.88 81.9855 137.043 81.5402C166.598 79.6848 193.107 76.8399 216.324 73.5991C234.024 71.1005 250.16 68.404 266.626 65.3117C276.258 63.5058 286.302 61.5762 296.84 59.3249C320.879 54.2041 345.413 47.2525 368.135 40.6473C374.639 38.7672 381.143 36.887 387.647 35.1058C403.783 30.6282 420.413 26.571 437.784 23.355C462.4 18.8278 488.415 15.4387 516.077 15.9087C545.221 16.4035 574.2 19.6442 607.049 20.8317C611.906 21.0048 616.846 21.1285 621.703 21.2275C653.152 21.7965 682.954 20.5843 713.086 17.863C761.33 13.5585 809.821 5.24634 858.394 2.15402C874.941 1.115 891.654 0.694439 908.613 1.23869C942.45 2.32719 972.088 7.12649 1004.03 10.9115C1013.42 12.0247 1023.05 13.0638 1032.93 13.8801C1089.9 18.5805 1154.52 14.6718 1186.71 5.09792" stroke="#7898A6" stroke-width="2" stroke-miterlimit="10"/>
</svg>
