<svg width="1278" height="94" viewBox="0 0 1278 94" fill="none" xmlns="http://www.w3.org/2000/svg">
<path d="M0.239296 46.9988C37.7805 37.7466 84.5423 32.0072 132.704 30.4734C151.227 29.8797 169.916 29.9045 188.357 30.5724C217.912 31.6609 246.727 34.4069 273.072 38.5382C305.92 43.6839 335.146 51.0312 358.692 59.6897C365.031 62.0152 371.206 64.489 377.545 66.9382C402.737 76.8089 428.341 86.3332 466.952 87.6939C508.198 89.1287 545.328 79.8517 572.578 70.1542C581.469 66.9629 590.031 63.6974 598.346 60.3577C632.018 46.8751 662.726 32.601 703.231 20.8749C730.646 12.9338 765.141 6.20486 801.695 3.06306C833.555 0.317075 866.486 0.218122 898.1 3.33519C947.825 8.25817 984.79 20.009 1013.36 32.5268C1016.57 33.9121 1019.61 35.3222 1022.66 36.7323C1046.54 47.8894 1067.28 59.8134 1096.34 70.1294C1103.75 72.7517 1111.66 75.2751 1120.22 77.6747C1162.62 89.4008 1228.73 96.5008 1277.63 89.0545" stroke="#FFA366" stroke-width="2" stroke-miterlimit="10"/>
</svg>
