<svg width="1281" height="134" viewBox="0 0 1281 134" fill="none" xmlns="http://www.w3.org/2000/svg">
<path d="M72.7043 125.17C114.362 129.276 160.547 129.153 201.876 124.774C251.025 119.579 291.448 108.892 327.919 97.7099C364.39 86.5281 398.802 74.5051 441.53 65.5745C484.34 56.6438 537.935 50.9787 588.731 54.4421C620.592 56.6191 649.242 62.21 681.432 63.917C783.27 69.31 875.148 35.0223 976.328 41.4543C1019.55 44.2003 1054.29 54.071 1096.61 57.955C1151.93 63.0512 1216.97 56.2728 1249.98 41.9738" stroke="#62A8B2" stroke-width="2" stroke-miterlimit="10"/>
<path d="M69.2465 122.894C104.565 125.788 143.423 126.135 179.894 123.933C187.057 123.512 194.137 122.968 201.052 122.35C229.538 119.777 255.059 115.67 278.193 110.871C295.893 107.209 312.276 103.152 328.248 98.8973C337.633 96.3987 347.019 93.8259 356.651 91.1789C378.632 85.0684 400.861 78.4138 424.077 72.4023C430.745 70.6706 437.496 69.0131 444.329 67.4298C461.453 63.4716 480.059 60.033 499.489 57.5096C526.986 53.9473 556.212 52.1908 585.356 53.6009C616.393 55.11 645.043 60.0082 677.48 61.542C682.337 61.7647 687.112 61.9131 691.887 62.0121C722.842 62.581 752.645 60.3298 782.365 56.8912C829.785 51.3992 876.712 42.8149 924.626 40.2173C941.092 39.3268 957.64 39.1536 974.517 40.0442C1008.11 41.8254 1036.84 47.6637 1067.88 51.9929C1077.01 53.2546 1086.4 54.4173 1096.11 55.2584C1152.01 60.2309 1216.89 54.3926 1249.57 41.6769" stroke="#69A3AE" stroke-width="2" stroke-miterlimit="10"/>
<path d="M65.7888 120.643C101.683 123.018 141.365 123.191 178.577 121.286C185.904 120.915 193.067 120.469 200.147 119.925C229.126 117.723 255.141 114.235 278.358 110.228C296.058 107.135 312.276 103.771 328.577 100.11C338.127 97.9573 347.76 95.7061 357.886 93.257C380.937 87.6413 404.236 80.8382 427.288 74.5299C433.874 72.7239 440.46 70.9675 447.211 69.2605C463.841 65.055 481.459 61.2947 499.818 58.425C525.916 54.3926 553.495 51.9683 581.898 52.7599C612.03 53.5763 640.844 57.8313 673.446 59.1919C678.303 59.3898 683.161 59.5383 688.018 59.6125C719.22 60.1815 749.022 58.4498 778.989 55.3574C826.822 50.4592 874.571 41.9986 922.733 39.1537C939.198 38.1888 955.911 37.892 972.788 38.6094C1006.46 40.0442 1035.69 45.363 1067.22 49.4202C1076.52 50.6076 1085.99 51.6961 1095.78 52.5372C1152.18 57.3613 1216.97 52.5125 1249.41 41.3554" stroke="#719DAA" stroke-width="2" stroke-miterlimit="10"/>
<path d="M62.331 118.391C98.802 120.222 139.307 120.271 177.342 118.663C184.834 118.342 192.161 117.971 199.324 117.525C228.879 115.67 255.388 112.825 278.605 109.584C296.305 107.086 312.441 104.389 328.907 101.297C338.539 99.491 348.583 97.5614 359.121 95.3102C383.16 90.1893 407.694 83.2377 430.416 76.6325C436.92 74.7524 443.424 72.8723 449.928 71.0911C466.064 66.6134 482.694 62.5563 500.065 59.3402C524.681 54.8131 550.696 51.4239 578.358 51.8939C607.502 52.3887 636.481 55.6294 669.329 56.8169C674.187 56.9901 679.126 57.1138 683.984 57.2127C715.433 57.7817 745.235 56.5695 775.367 53.8483C823.611 49.5437 872.101 41.2316 920.675 38.1392C937.222 37.1002 953.935 36.6797 970.894 37.2239C1004.73 38.3124 1034.37 43.1117 1066.31 46.8967C1075.7 48.01 1085.33 49.049 1095.21 49.8654C1152.18 54.5657 1216.81 50.657 1249 41.0831" stroke="#7898A6" stroke-width="2" stroke-miterlimit="10"/>
<path d="M58.8733 116.115C95.8382 117.402 137.249 117.328 176.025 115.992C183.599 115.744 191.091 115.423 198.418 115.076C228.55 113.592 255.471 111.39 278.769 108.892C296.47 106.987 312.523 104.934 329.154 102.46C338.95 101 349.241 99.3921 360.273 97.3388C385.383 92.688 410.987 85.6127 433.544 78.7354C440.048 76.7563 446.305 74.802 452.644 72.8971C468.287 68.172 484.011 63.7933 500.312 60.2309C523.446 55.2337 547.815 51.5229 574.9 51.0282C603.139 50.5087 632.282 53.4031 665.296 54.4421C670.235 54.5905 675.175 54.7142 680.032 54.7884C711.728 55.3574 741.531 54.6647 771.909 52.2898C820.565 48.5543 869.796 40.3906 918.699 37.0509C935.329 35.9376 952.041 35.3934 969.001 35.7645C1003 36.5313 1033.05 40.7864 1065.41 44.324C1074.96 45.363 1084.67 46.3526 1094.63 47.1442C1152.18 51.7209 1216.72 48.777 1248.5 40.7617" stroke="#8092A2" stroke-width="2" stroke-miterlimit="10"/>
<path d="M55.4156 113.864C92.9568 114.606 135.273 114.384 174.708 113.369C182.446 113.171 190.103 112.924 197.595 112.677C228.303 111.563 255.718 109.98 279.016 108.248C296.717 106.937 312.606 105.552 329.565 103.672C339.527 102.559 350.065 101.247 361.591 99.4168C387.688 95.2607 414.445 88.0618 436.838 80.8628C443.259 78.8095 449.434 76.7562 455.526 74.7524C470.592 69.7799 485.411 65.0796 500.641 61.1709C522.293 55.6789 545.016 51.3497 571.443 50.187C598.775 48.9995 628.001 51.226 661.262 52.0918C666.201 52.2155 671.223 52.3145 676.163 52.4134C708.106 52.9824 737.908 52.7845 768.534 50.8054C817.601 47.6141 867.656 39.6236 916.805 36.0612C933.518 34.8738 950.23 34.2058 967.272 34.4037C1001.44 34.8243 1031.9 38.5598 1064.75 41.8253C1074.46 42.7901 1084.26 43.7302 1094.39 44.4971C1152.43 48.95 1216.89 46.9462 1248.42 40.5142" stroke="#878D9E" stroke-width="2" stroke-miterlimit="10"/>
<path d="M51.9578 111.613C89.993 111.836 133.215 111.465 173.473 110.722C181.376 110.574 189.197 110.426 196.771 110.228C227.973 109.485 255.882 108.521 279.263 107.556C297.046 106.814 312.853 106.121 329.894 104.835C340.021 104.068 350.806 103.078 362.825 101.445C389.993 97.7593 417.82 90.4367 440.048 82.9657C446.387 80.8134 452.48 78.6859 458.325 76.5583C472.897 71.3138 486.728 66.2918 500.97 62.0615C521.223 56.0995 542.134 51.1271 568.067 49.3211C594.412 47.4905 623.885 49.0243 657.31 49.717C662.332 49.8159 667.271 49.9149 672.293 49.9891C704.566 50.5581 734.286 50.8797 765.076 49.2469C814.555 46.6494 865.351 38.8072 914.829 34.9728C931.542 33.6863 948.419 32.9194 965.461 32.9442C999.791 33.0184 1030.66 36.2344 1063.92 39.2278C1073.72 40.1184 1083.68 40.9842 1093.89 41.7511C1152.51 46.0804 1216.81 45.0414 1248.09 40.1431" stroke="#8F8799" stroke-width="2" stroke-miterlimit="10"/>
<path d="M48.5001 109.337C87.1115 109.015 131.157 108.521 172.156 108.075C180.224 107.976 188.127 107.902 195.866 107.803C227.644 107.432 255.965 107.086 279.428 106.888C297.211 106.739 312.935 106.739 330.141 106.022C340.432 105.602 351.464 104.934 363.978 103.523C392.134 100.332 421.113 92.8611 443.177 85.0932C449.516 82.8667 455.361 80.6155 461.042 78.4138C475.12 72.9218 487.963 67.5783 501.135 63.0016C519.823 56.5449 539.17 50.9539 564.445 48.5048C589.802 46.031 619.439 46.8473 653.111 47.3916C658.133 47.4658 663.155 47.54 668.259 47.639C700.779 48.2327 730.499 49.0491 761.536 47.7874C811.426 45.7588 863.046 38.0651 912.771 34.008C929.566 32.6474 946.443 31.7568 963.567 31.6084C998.062 31.3362 1029.35 34.0327 1063.02 36.754C1072.98 37.5704 1083.02 38.3867 1093.31 39.1289C1152.51 43.3344 1216.64 43.2355 1247.6 39.9205" stroke="#968295" stroke-width="2" stroke-miterlimit="10"/>
<path d="M45.0424 107.086C84.2301 106.22 129.098 105.577 170.838 105.428C179.071 105.404 187.139 105.379 194.96 105.379C227.315 105.379 256.129 105.651 279.51 106.22C297.293 106.641 312.935 107.333 330.388 107.185C340.844 107.111 352.123 106.739 365.131 105.552C394.357 102.831 424.406 95.236 446.305 87.1712C452.562 84.8458 458.325 82.5204 463.759 80.195C477.343 74.4309 489.198 68.7905 501.382 63.8675C518.588 56.9159 536.206 50.7313 560.987 47.5895C585.273 44.4972 615.241 44.5961 649.159 44.9672C654.181 45.0167 659.286 45.0909 664.39 45.1898C697.156 45.7836 726.876 47.1194 758.078 46.2041C808.38 44.7693 860.74 37.224 910.795 32.8947C927.672 31.4599 944.549 30.4456 961.756 30.124C996.333 29.5056 1028.03 31.6578 1062.28 34.1564C1072.32 34.8986 1082.53 35.6655 1092.9 36.3581C1152.59 40.4153 1216.64 41.3059 1247.35 39.5494" stroke="#9E7D91" stroke-width="2" stroke-miterlimit="10"/>
<path d="M41.5846 104.835C81.2663 103.424 127.04 102.658 169.603 102.806C177.918 102.831 186.151 102.905 194.219 102.979C227.15 103.325 256.376 104.241 279.84 105.577C297.622 106.591 313.182 107.952 330.8 108.397C341.42 108.669 352.946 108.62 366.448 107.63C396.662 105.404 427.946 97.6851 449.516 89.3234C455.69 86.9238 461.371 84.4994 466.558 82.075C479.565 76.0635 490.515 70.1015 501.711 64.8322C517.518 57.4106 533.407 50.6322 557.529 46.7978C580.828 43.087 610.96 42.4685 645.125 42.6417C650.23 42.6664 655.334 42.7159 660.52 42.8148C693.534 43.4086 723.254 45.2392 754.703 44.7197C805.416 43.8539 858.517 36.457 908.902 31.9051C925.779 30.3961 942.82 29.2581 959.945 28.7633C994.687 27.7985 1026.79 29.4313 1061.45 31.6577C1071.66 32.3009 1081.95 33.0431 1092.49 33.711C1152.75 37.6445 1216.64 39.4751 1247.1 39.302" stroke="#A5778D" stroke-width="2" stroke-miterlimit="10"/>
<path d="M38.1269 102.559C78.3849 100.604 124.982 99.7137 168.286 100.134C176.766 100.209 185.163 100.357 193.314 100.53C226.821 101.248 256.459 102.781 280.004 104.884C297.787 106.492 313.264 108.545 331.047 109.56C341.914 110.178 353.605 110.45 367.6 109.659C398.802 107.902 431.239 100.06 452.644 91.4016C458.819 88.9277 464.252 86.4044 469.274 83.881C481.788 77.6222 491.75 71.3386 501.876 65.7229C516.201 57.8065 530.361 50.4344 553.907 45.9073C576.3 41.6028 606.596 40.2174 640.927 40.2421C646.031 40.2421 651.218 40.2916 656.404 40.3906C689.664 40.9843 719.384 43.3345 751.08 43.186C802.206 42.9139 856.13 35.6407 906.761 30.8415C923.721 29.2582 940.762 27.9965 957.969 27.3286C992.875 26.0174 1025.39 27.1307 1060.47 29.085C1070.76 29.654 1081.21 30.322 1091.83 30.9899C1152.67 34.7996 1216.39 37.5951 1246.53 38.9805" stroke="#AD7289" stroke-width="2" stroke-miterlimit="10"/>
<path d="M34.6691 100.307C75.4211 97.8336 122.924 96.7699 166.969 97.512C175.613 97.6605 184.093 97.8584 192.408 98.1305C226.409 99.219 256.623 101.371 280.169 104.241C297.952 106.418 313.429 109.164 331.376 110.772C342.408 111.737 354.428 112.306 368.835 111.737C401.108 110.45 434.615 102.484 455.855 93.5291C461.947 90.9563 467.299 88.334 472.156 85.7117C484.176 79.1807 493.149 72.6002 502.288 66.6382C515.131 58.2519 527.644 50.3108 550.614 45.0662C572.019 40.1679 602.48 38.0404 637.057 37.892C642.244 37.8672 647.431 37.892 652.699 37.9909C686.289 38.5847 715.927 41.4543 747.787 41.6523C799.324 41.9739 853.99 34.8491 904.95 29.8025C921.992 28.145 939.033 26.7349 956.322 25.9185C991.394 24.261 1024.32 24.8547 1059.89 26.5617C1070.35 27.0565 1080.88 27.6749 1091.59 28.3181C1152.92 32.0042 1216.56 35.7397 1246.44 38.7084" stroke="#B46C85" stroke-width="2" stroke-miterlimit="10"/>
<path d="M31.2114 98.0562C72.5396 95.0381 120.866 93.8506 165.734 94.8649C174.543 95.0628 183.187 95.335 191.585 95.706C226.162 97.1656 256.788 99.9363 280.416 103.573C298.199 106.319 313.594 109.782 331.706 111.959C342.902 113.295 355.169 114.161 370.07 113.79C403.33 112.974 437.99 104.884 459.066 95.6566C465.076 93.0095 470.345 90.2883 474.955 87.567C486.399 80.7887 494.549 73.8866 502.617 67.5782C514.06 58.7218 524.928 50.187 547.156 44.225C567.656 38.733 598.281 35.8633 633.023 35.5417C638.21 35.4923 643.479 35.517 648.748 35.616C682.584 36.2097 712.222 39.5989 744.33 40.1679C796.361 41.0585 851.684 34.0822 902.974 28.7881C920.016 27.0564 937.14 25.5226 954.511 24.5331C989.747 22.5292 1023.09 22.6035 1059.07 24.0383C1069.69 24.4588 1080.31 25.0278 1091.09 25.6463C1153 29.2087 1216.56 33.909 1246.11 38.4362" stroke="#BC6781" stroke-width="2" stroke-miterlimit="10"/>
<path d="M27.7536 95.7802C69.5759 92.2179 118.808 90.9067 164.417 92.2179C173.391 92.4652 182.2 92.8363 190.762 93.2816C225.915 95.1123 257.035 98.4767 280.663 102.93C298.446 106.269 313.758 110.425 332.035 113.147C343.396 114.829 355.91 115.992 371.305 115.843C405.553 115.522 441.366 107.284 462.277 97.7593C468.287 95.0133 473.309 92.2179 477.754 89.3729C488.704 82.3224 495.866 75.1235 502.864 68.4688C512.826 59.1176 522.129 50.0385 543.698 43.3591C563.292 37.2982 594 33.6368 628.989 33.1668C634.176 33.0926 639.527 33.0926 644.796 33.1915C678.88 33.81 708.517 37.694 740.872 38.6093C793.314 40.0936 849.462 33.241 900.998 27.7243C918.122 25.8937 935.329 24.2609 952.618 23.0982C988.018 20.748 1021.77 20.3027 1058.16 21.4654C1068.86 21.8118 1079.65 22.3313 1090.6 22.925C1153.08 26.3637 1216.48 32.0041 1245.78 38.1145" stroke="#C3617D" stroke-width="2" stroke-miterlimit="10"/>
<path d="M24.2959 93.5291C66.6944 89.4225 116.749 87.9629 163.1 89.5709C172.238 89.8925 181.129 90.3131 189.856 90.8573C225.586 93.0343 257.117 97.042 280.827 102.262C298.61 106.171 313.841 111.044 332.364 114.334C343.808 116.388 356.651 117.847 372.54 117.897C407.858 118.045 444.741 109.708 465.405 99.8869C471.333 97.0667 476.272 94.1723 480.471 91.2284C490.926 83.9305 497.101 76.41 503.111 69.4089C511.591 59.5877 519.329 49.9396 540.158 42.5428C558.929 35.8881 589.719 31.4846 624.873 30.8414C630.142 30.7425 635.411 30.7425 640.844 30.8414C675.175 31.4599 704.813 35.8634 737.332 37.1498C790.186 39.2278 847.074 32.5237 898.94 26.7348C916.146 24.83 933.353 23.0735 950.724 21.7376C986.289 19.0164 1020.46 18.0763 1057.34 18.9917C1068.2 19.2638 1079.15 19.7091 1090.1 20.3028C1153.08 23.593 1216.39 30.223 1245.37 37.8919" stroke="#CB5C79" stroke-width="2" stroke-miterlimit="10"/>
<path d="M20.8381 91.2779C63.8129 86.6517 114.773 85.0437 161.865 86.9486C171.085 87.3197 180.224 87.8145 189.033 88.4577C225.257 91.0057 257.364 95.6071 281.074 101.619C298.939 106.096 313.923 111.687 332.694 115.546C344.302 117.946 357.392 119.703 373.775 119.999C410.081 120.618 448.199 112.157 468.616 102.039C474.461 99.1447 479.236 96.1266 483.27 93.0838C493.232 85.5138 498.418 77.6964 503.44 70.349C510.52 60.033 516.613 49.816 536.7 41.7017C554.565 34.4533 585.438 29.3076 620.839 28.4913C626.108 28.3676 631.459 28.3428 636.893 28.4418C671.552 29.0603 701.108 33.9832 733.874 35.616C787.14 38.263 844.851 31.7073 896.964 25.6958C914.253 23.7167 931.46 21.8366 948.913 20.3275C984.561 17.2599 1019.22 15.8004 1056.51 16.4436C1067.46 16.6415 1078.58 17.0373 1089.61 17.5816C1153.17 20.7481 1216.31 28.3181 1245.04 37.5456" stroke="#D25775" stroke-width="2" stroke-miterlimit="10"/>
<path d="M17.3804 89.002C60.8492 83.8317 112.715 82.1 160.547 84.2769C169.933 84.6975 179.153 85.2912 188.127 86.0087C224.927 88.9278 257.447 94.1477 281.157 100.926C299.022 105.997 313.923 112.281 332.858 116.709C344.631 119.455 357.968 121.533 374.845 122.028C412.139 123.117 451.409 114.532 471.662 104.117C477.507 101.124 482.117 98.0316 485.905 94.8898C495.29 87.0724 499.653 78.9334 503.523 71.2397C509.121 60.4537 513.731 49.6676 533.078 40.836C550.12 33.0186 581.075 27.0813 616.722 26.1165C622.074 25.968 627.425 25.9433 632.941 26.0423C667.848 26.6607 697.403 32.128 730.334 34.107C784.011 37.3725 842.464 30.9405 894.906 24.6569C912.195 22.6036 929.566 20.5998 947.019 18.9175C982.831 15.5036 1017.9 13.5245 1055.61 13.8956C1066.72 14.0193 1077.92 14.3656 1089.03 14.8851C1153.17 17.928 1216.15 26.4628 1244.63 37.2489" stroke="#DA5170" stroke-width="2" stroke-miterlimit="10"/>
<path d="M13.9227 86.7507C57.9677 81.0361 110.657 79.156 159.313 81.6546C168.863 82.1494 178.248 82.7926 187.386 83.5842C224.763 86.8744 257.776 92.7128 281.486 100.258C299.351 105.898 314.17 112.875 333.352 117.872C345.29 120.989 358.874 123.339 376.245 124.057C414.609 125.615 454.95 116.907 475.037 106.22C480.8 103.152 485.328 99.9612 488.868 96.6957C497.76 88.6309 501.135 80.1703 504.017 72.1302C508.133 60.8494 511.261 49.5191 529.785 39.9453C546.086 31.5342 576.959 24.8547 612.853 23.692C618.205 23.5189 623.638 23.4694 629.154 23.5683C664.308 24.1868 693.863 30.1735 727.041 32.499C781.13 36.3582 840.323 30.0498 893.095 23.5436C910.466 21.4161 927.837 19.2638 945.291 17.4332C981.268 13.6481 1016.75 11.1743 1054.95 11.2732C1066.15 11.298 1077.51 11.6196 1088.7 12.1144C1153.33 15.0335 1216.23 24.5331 1244.39 36.8777" stroke="#E14C6C" stroke-width="2" stroke-miterlimit="10"/>
<path d="M10.5472 84.4994C55.0863 78.2405 108.681 76.2367 158.078 79.0074C167.792 79.5517 177.26 80.2691 186.563 81.1597C224.516 84.821 257.941 91.2778 281.733 99.59C299.68 105.824 314.335 113.493 333.682 119.059C345.784 122.523 359.615 125.17 377.48 126.11C416.832 128.114 458.325 119.331 478.248 108.323C483.929 105.156 488.292 101.891 491.668 98.5262C500.065 90.1893 502.452 81.4318 504.264 73.0454C506.898 61.2946 508.627 49.3706 526.327 39.1041C541.805 30.0992 572.76 22.6529 608.819 21.3417C614.17 21.1438 619.686 21.0943 625.285 21.1933C660.685 21.8118 690.241 28.318 723.666 31.0145C778.166 35.4675 838.183 29.2828 891.284 22.5292C908.737 20.3275 926.108 18.0515 943.644 16.0477C979.703 11.9163 1015.68 8.89822 1054.29 8.77452C1065.65 8.72505 1077.1 8.97243 1088.46 9.4672C1153.66 12.2627 1216.39 22.7024 1244.3 36.6302" stroke="#E94668" stroke-width="2" stroke-miterlimit="10"/>
<path d="M7.08949 82.2235C52.2048 75.4451 106.623 73.2928 156.76 76.3604C166.64 76.9542 176.272 77.7705 185.657 78.7353C224.104 82.7677 258.105 89.843 281.898 98.922C299.845 105.75 314.335 114.112 333.929 120.247C346.113 124.056 360.273 127.025 378.632 128.163C419.055 130.662 461.618 121.731 481.377 110.45C487.057 107.209 491.256 103.82 494.384 100.357C502.288 91.7726 503.687 82.6688 504.511 73.9608C505.663 61.7152 505.91 49.2469 522.787 38.2382C537.524 28.6397 568.396 20.4512 604.703 18.9669C610.136 18.7442 615.652 18.67 621.251 18.7689C656.898 19.4122 686.454 26.4132 720.043 29.4808C774.955 34.5027 835.713 28.4912 889.143 21.4902C906.597 19.2142 924.05 16.8146 941.668 14.6376C977.892 10.1599 1014.28 6.62229 1053.3 6.22647C1064.83 6.10278 1076.36 6.30069 1087.8 6.77072C1153.58 9.44249 1216.23 20.847 1243.81 36.3334" stroke="#F04164" stroke-width="2" stroke-miterlimit="10"/>
<path d="M3.63175 79.9722C49.241 72.6496 104.565 70.3736 155.525 73.7133C165.487 74.3813 175.366 75.2471 184.834 76.3109C223.857 80.6896 258.27 88.4081 282.145 98.254C300.092 105.651 314.499 114.73 334.34 121.434C346.689 125.615 361.179 128.88 379.949 130.216C421.36 133.185 465.076 124.131 484.587 112.553C490.185 109.238 494.302 105.75 497.266 102.187C504.593 93.331 505.087 83.9304 504.922 74.876C504.675 62.1604 503.44 49.0984 519.412 37.3971C533.407 27.2047 564.28 18.2741 600.751 16.6166C606.185 16.3692 611.783 16.295 617.463 16.394C653.44 17.0372 682.914 24.5577 716.75 27.9716C772.074 33.5873 833.655 27.6995 887.332 20.4759C904.868 18.1257 922.321 15.6023 940.021 13.2522C976.41 8.42815 1013.21 4.37102 1052.73 3.70307C1064.34 3.50517 1076.03 3.6536 1087.55 4.09889C1153.83 6.62223 1216.39 18.9915 1243.64 36.0612" stroke="#F83B60" stroke-width="2" stroke-miterlimit="10"/>
<path d="M0.174004 77.7211C46.3596 69.8542 102.507 67.4298 154.208 71.0664C205.91 74.703 252.589 84.3758 282.309 97.5862C311.453 110.549 330.882 128.188 381.102 132.27C423.583 135.708 468.451 126.53 487.716 114.656C506.98 102.781 506.816 88.9772 505.087 75.7667C503.358 62.5563 500.723 48.9253 515.872 36.5313C531.02 24.1373 569.549 13.2028 613.429 13.9697C649.653 14.6129 679.126 22.6529 713.21 26.438C768.945 32.6226 831.267 26.8832 885.274 19.4122C939.28 11.9411 992.546 2.54046 1051.74 1.1551C1130.94 -0.675562 1211.45 13.8707 1243.15 35.7397" stroke="#FF365C" stroke-width="2" stroke-miterlimit="10"/>
<path d="M0.174004 76.3852C45.9479 68.4441 101.601 65.8712 153.138 69.2357C172.897 70.5468 191.996 72.6991 209.779 75.6183C238.264 80.2939 263.209 86.8991 281.898 94.8402C305.032 104.637 322.403 117.229 351.876 124.477C360.438 126.58 369.988 128.213 381.02 129.202C422.595 132.962 466.146 124.675 486.81 113.518C502.452 105.032 507.886 95.0628 509.286 85.0189C509.779 81.7534 509.862 78.4632 509.862 75.2224C509.862 62.012 509.039 48.3563 525.339 35.9623C541.311 23.7909 579.428 13.0543 622.979 13.648C658.956 14.1181 688.677 21.7623 722.595 25.4978C778.084 31.633 839.088 26.7595 891.778 20.278C897.705 19.5606 903.551 18.7937 909.396 18.0515C956.075 12.04 1002.59 5.45956 1054.04 4.81635C1067.05 4.64318 1080.22 4.94005 1093.15 5.58325C1157.04 8.87349 1217.46 21.6881 1244.96 38.6093" stroke="#FF3B5C" stroke-width="2" stroke-miterlimit="10"/>
<path d="M0.174004 75.0245C45.5363 67.0092 100.696 64.2632 152.068 67.3803C171.744 68.5925 190.844 70.6458 208.626 73.4413C237.112 77.9437 262.304 84.3262 281.404 92.0694C305.032 101.619 322.979 113.938 352.205 121.261C360.603 123.364 369.988 125.046 380.773 126.134C421.525 130.216 463.841 122.82 485.658 112.355C502.452 104.365 509.697 94.4691 512.496 84.4252C513.402 81.1597 513.978 77.8695 514.39 74.6287C516.201 61.3936 517.189 47.7378 534.56 35.3685C551.272 23.4445 589.061 12.9059 632.2 13.277C667.93 13.5738 697.815 20.7975 731.651 24.5083C786.811 30.5693 846.58 26.5864 898.035 21.0944C903.797 20.4759 909.56 19.8574 915.241 19.2142C960.686 14.1181 1005.88 8.50243 1056.19 8.42822C1068.95 8.40348 1081.79 8.79929 1094.47 9.56619C1157.28 13.3017 1217.96 25.8195 1246.61 41.4543" stroke="#FF415D" stroke-width="2" stroke-miterlimit="10"/>
<path d="M0.256447 73.6887C45.1248 65.624 99.8724 62.7048 151.08 65.5497C170.756 66.6382 189.774 68.5926 207.556 71.2891C236.124 75.5936 261.481 81.7783 280.992 89.3235C305.114 98.6253 323.72 110.673 352.617 118.07C360.932 120.197 370.153 121.904 380.691 123.067C420.619 127.446 461.618 120.939 484.752 111.217C502.617 103.697 511.838 93.8754 515.954 83.8811C517.354 80.6156 518.342 77.3253 519.165 74.0845C522.705 60.8247 525.586 47.1689 544.028 34.7996C561.481 23.123 598.94 12.7575 641.75 12.9555C677.315 13.0791 707.365 19.907 741.037 23.5931C795.867 29.6045 854.401 26.4875 904.539 22.0098C910.137 21.515 915.735 20.9955 921.333 20.4513C965.626 16.2457 1009.42 11.6196 1058.49 12.1391C1070.92 12.2628 1083.52 12.7823 1095.95 13.6234C1157.61 17.8042 1218.62 30.0251 1248.42 44.3735" stroke="#FF465D" stroke-width="2" stroke-miterlimit="10"/>
<path d="M0.256447 72.3528C44.7131 64.2138 98.9668 61.1214 150.01 63.7437C169.604 64.7333 188.621 66.5887 206.486 69.1367C235.136 73.2434 260.657 79.2301 280.581 86.5775C305.196 95.6318 324.461 107.407 353.029 114.878C361.179 117.006 370.235 118.762 380.526 119.999C419.549 124.7 459.478 119.059 483.682 110.054C502.782 102.979 513.814 93.2816 519.247 83.2872C521.058 80.0217 522.458 76.7562 523.775 73.4908C529.127 60.2309 533.737 46.5504 553.331 34.2058C571.525 22.7766 608.655 12.609 651.053 12.5843C686.371 12.5596 716.586 18.9669 750.175 22.6034C804.758 28.5407 861.975 26.3142 910.878 22.8261C916.311 22.4303 921.745 22.0344 927.179 21.6139C970.236 18.3237 1012.72 14.6623 1060.63 15.7508C1072.82 16.023 1085.08 16.6662 1097.35 17.6062C1157.86 22.2324 1219.19 34.1564 1250.07 47.2183" stroke="#FF4C5E" stroke-width="2" stroke-miterlimit="10"/>
<path d="M0.256447 71.0169C44.3015 62.8037 98.0612 59.5629 148.939 61.9131C168.451 62.8037 187.469 64.5354 205.334 66.9845C234.066 70.918 259.834 76.6821 280.087 83.8315C305.279 92.6632 325.12 104.142 353.358 111.687C361.426 113.839 370.317 115.645 380.279 116.957C418.479 121.954 457.255 117.204 482.612 108.941C502.864 102.336 515.707 92.7127 522.623 82.743C524.845 79.4775 526.739 76.212 528.55 72.9465C535.63 59.6619 542.052 45.9814 562.881 33.6369C581.734 22.4303 618.616 12.4606 660.685 12.2627C695.839 12.0648 726.218 18.0515 759.643 21.6881C813.896 27.5759 869.879 26.1906 917.464 23.7167C922.815 23.4446 928.084 23.1477 933.353 22.8508C975.258 20.4512 1016.34 17.7794 1063.1 19.4369C1074.96 19.8575 1086.98 20.5996 1099 21.6386C1158.35 26.7101 1220.02 38.3372 1252.04 50.1128" stroke="#FF515E" stroke-width="2" stroke-miterlimit="10"/>
<path d="M0.256447 69.6811C43.8899 61.3937 97.2379 57.9798 147.787 60.0826C167.216 60.8742 186.234 62.4822 204.181 64.8324C232.913 68.5679 258.929 74.1588 279.593 81.0857C305.279 89.6699 325.778 100.877 353.687 108.496C361.673 110.648 370.317 112.504 380.114 113.889C417.491 119.208 455.114 115.324 481.624 107.779C503.193 101.619 517.765 92.1191 525.998 82.1494C528.715 78.9087 531.02 75.6184 533.243 72.3529C542.134 59.0683 550.285 45.3631 572.266 33.0433C591.86 22.0841 628.413 12.3123 670.071 11.9165C704.977 11.5454 735.521 17.1364 768.863 20.7234C822.788 26.537 877.535 26.0423 923.885 24.5579C929.072 24.3848 934.176 24.2116 939.363 24.0137C980.033 22.5294 1019.8 20.8224 1065.32 23.0489C1076.85 23.6179 1088.62 24.4837 1100.4 25.5969C1158.6 31.1137 1220.59 42.4192 1253.69 52.9331" stroke="#FF575F" stroke-width="2" stroke-miterlimit="10"/>
<path d="M0.338676 68.3204C43.4781 59.9587 96.4145 56.3964 146.799 58.227C166.146 58.9197 185.163 60.4288 203.111 62.6305C231.925 66.1681 258.105 71.5612 279.263 78.2901C305.443 86.627 326.519 97.5614 354.181 105.255C362.002 107.432 370.564 109.312 380.032 110.772C416.503 116.412 453.221 113.419 480.636 106.591C503.523 100.901 519.823 91.5005 529.373 81.5556C532.502 78.3148 535.301 75.0246 537.935 71.7591C548.638 58.4497 558.435 44.7445 581.651 32.4247C601.904 21.6881 638.21 12.139 679.538 11.5206C714.198 11.001 744.906 16.1714 778.166 19.709C831.844 25.4484 885.274 25.8442 930.307 25.3494C935.329 25.3 940.351 25.2257 945.29 25.1515C984.725 24.5578 1023.17 23.8156 1067.55 26.6358C1078.83 27.3533 1090.27 28.3428 1101.79 29.555C1158.93 35.517 1221.17 46.5257 1255.42 55.7532" stroke="#FF5C5F" stroke-width="2" stroke-miterlimit="10"/>
<path d="M0.338676 66.9846C43.0665 58.5735 95.5089 54.8132 145.729 56.3965C165.075 56.9902 184.011 58.3756 201.958 60.4783C230.855 63.8428 257.2 69.0132 278.769 75.5442C305.443 83.6337 327.178 94.296 354.51 102.064C362.249 104.241 370.564 106.171 379.867 107.729C415.515 113.691 451.245 111.588 479.648 105.453C503.852 100.233 521.799 90.9068 532.749 80.9866C536.371 77.7459 539.582 74.4557 542.628 71.1902C555.059 57.8808 566.585 44.1509 591.036 31.8558C611.865 21.3666 648.007 12.0154 689.006 11.199C723.501 10.5064 754.374 15.2562 787.469 18.7938C840.817 24.4837 893.013 25.7453 936.811 26.2648C941.668 26.3143 946.525 26.3638 951.383 26.4133C989.665 26.7349 1026.71 26.9575 1069.85 30.3715C1080.8 31.2373 1092 32.3505 1103.36 33.6369C1159.34 40.0442 1221.91 50.7561 1257.23 58.6972" stroke="#FF6160" stroke-width="2" stroke-miterlimit="10"/>
<path d="M0.338676 65.6487C42.6549 57.1633 94.6034 53.2546 144.658 54.5658C163.923 55.0605 182.858 56.3469 200.888 58.326C229.785 61.4926 256.376 66.465 278.358 72.7981C305.526 80.6403 327.836 91.0305 354.922 98.8726C362.496 101.074 370.729 103.029 379.703 104.661C414.527 110.945 449.351 109.733 478.577 104.315C504.181 99.5653 523.775 90.3378 536.042 80.4176C540.076 77.1768 543.698 73.9113 547.238 70.6211C561.481 57.287 574.653 43.5323 600.339 31.262C621.827 20.9955 657.722 11.8669 698.309 10.8279C732.557 9.96205 763.594 14.316 796.608 17.8042C849.626 23.4198 900.587 25.5721 943.15 27.0812C947.925 27.2543 952.618 27.4028 957.31 27.5512C994.358 28.7634 1030.09 29.9756 1072.07 33.9585C1082.69 34.9728 1093.64 36.185 1104.76 37.5703C1159.59 44.4229 1222.4 54.8379 1258.96 61.4926" stroke="#FF6760" stroke-width="2" stroke-miterlimit="10"/>
<path d="M0.338676 64.3128C42.2432 55.7533 93.6977 51.6714 143.588 52.7352C162.77 53.131 181.623 54.2937 199.735 56.1491C228.714 59.1177 255.471 63.8923 277.864 70.0522C305.608 77.647 328.495 87.7651 355.251 95.6814C362.743 97.8831 370.729 99.9117 379.538 101.594C413.457 108.174 447.458 107.902 477.589 103.152C504.593 98.8974 525.833 89.7194 539.417 79.8487C543.863 76.6079 547.979 73.3424 551.931 70.0522C567.902 56.7181 582.804 42.9387 609.725 30.6931C631.788 20.6492 667.518 11.7186 707.776 10.5064C741.778 9.49208 773.062 13.4255 805.91 16.8642C858.682 22.4304 908.243 25.4237 949.571 27.9471C954.182 28.2192 958.71 28.4913 963.238 28.7635C999.132 30.891 1033.46 33.068 1074.3 37.6199C1084.67 38.7826 1095.29 40.1185 1106.16 41.6028C1159.84 48.9007 1222.98 58.994 1260.6 64.3871" stroke="#FF6C61" stroke-width="2" stroke-miterlimit="10"/>
<path d="M0.420998 62.9769C41.8316 54.3432 92.8745 50.1129 142.6 50.9045C161.7 51.2014 180.553 52.2404 198.665 53.9968C227.726 56.7923 254.73 61.3689 277.452 67.3062C305.69 74.6535 329.236 84.4995 355.663 92.4654C362.99 94.6918 370.893 96.7451 379.373 98.5263C412.469 105.428 445.647 106.072 476.519 102.014C505.004 98.2789 527.727 89.1504 542.71 79.2797C547.65 76.0636 552.178 72.7734 556.541 69.4832C574.324 56.1243 590.872 42.3202 619.11 30.0993C641.75 20.2781 677.315 11.5701 717.162 10.16C750.998 8.97254 782.365 12.4854 815.131 15.9241C867.573 21.4161 915.899 25.3 955.993 28.8129C960.438 29.2087 964.884 29.5798 969.248 29.9756C1003.91 32.9937 1036.92 36.1603 1076.52 41.2812C1086.56 42.5923 1096.94 44.0519 1107.64 45.6104C1160.25 53.3536 1223.64 63.1501 1262.41 67.232" stroke="#FF7261" stroke-width="2" stroke-miterlimit="10"/>
<path d="M0.420998 61.6409C41.4199 52.9577 91.9688 48.5295 141.53 49.0737C160.547 49.2716 179.4 50.2117 197.595 51.8197C226.738 54.4173 253.906 58.796 277.04 64.5354C305.773 71.6353 329.977 81.2092 356.075 89.2492C363.319 91.4757 370.976 93.5785 379.208 95.4339C411.481 102.682 443.835 104.266 475.531 100.827C505.498 97.6109 529.785 88.5071 546.168 78.6611C551.519 75.4451 556.541 72.1548 561.316 68.8646C580.828 55.5058 599.022 41.6769 628.578 29.4807C651.794 19.8822 687.195 11.3721 726.712 9.76406C760.301 8.40344 791.832 11.5205 824.516 14.9097C876.629 20.3522 923.721 25.102 962.497 29.6044C966.86 30.0992 971.059 30.594 975.34 31.0887C1008.76 35.0222 1040.46 39.1535 1078.91 44.8682C1088.7 46.3277 1098.75 47.911 1109.2 49.5685C1160.66 57.757 1224.38 67.2566 1264.31 70.0521" stroke="#FF7762" stroke-width="2" stroke-miterlimit="10"/>
<path d="M0.420998 60.2804C41.0083 51.5229 91.0632 46.9463 140.46 47.2184C159.395 47.3174 178.248 48.1337 196.442 49.6428C225.586 52.0424 253.001 56.2232 276.546 61.7647C305.773 68.642 330.635 77.919 356.404 86.0333C363.566 88.2845 371.058 90.412 379.044 92.3416C410.41 99.9116 442.024 102.435 474.461 99.6642C505.91 96.9677 531.761 87.9134 549.461 78.0922C555.306 74.8762 560.74 71.5859 565.927 68.2957C587.249 54.9121 607.008 41.0585 637.881 28.8871C661.673 19.5112 696.909 11.2237 736.015 9.41781C769.439 7.88402 801.135 10.6053 833.572 13.9697C885.438 19.338 931.212 24.9784 968.754 30.4951C972.952 31.1136 977.069 31.7073 981.103 32.3258C1013.37 37.1498 1043.59 42.2707 1080.88 48.5543C1090.35 50.1623 1100.15 51.8445 1110.36 53.601C1160.66 62.2347 1224.71 71.4375 1265.71 72.9465" stroke="#FF7D62" stroke-width="2" stroke-miterlimit="10"/>
<path d="M0.503304 58.9446C40.679 50.1129 90.24 45.363 139.472 45.3878C158.407 45.3878 177.178 46.1052 195.372 47.4906C224.598 49.717 252.178 53.6752 276.135 59.0188C305.937 65.6487 331.376 74.6536 356.815 82.8421C363.813 85.0933 371.14 87.295 378.879 89.2988C409.423 97.1904 440.213 100.703 473.473 98.5263C506.322 96.3988 533.737 87.3197 552.837 77.5233C559.093 74.3072 564.939 71.0417 570.702 67.7268C593.753 54.3432 615.158 40.4153 647.348 28.3181C671.717 19.1649 706.788 11.0753 745.565 9.07151C778.742 7.36454 810.603 9.68998 842.958 13.005C894.494 18.299 939.034 24.8053 975.257 31.3363C979.292 32.0537 983.243 32.7958 987.195 33.5133C1018.23 39.2526 1047.13 45.3383 1083.27 52.1909C1092.41 53.9473 1101.96 55.7533 1111.92 57.5839C1161.07 66.663 1225.45 75.5442 1267.6 75.7916" stroke="#FF8263" stroke-width="2" stroke-miterlimit="10"/>
<path d="M0.503304 57.6086C40.185 48.7027 89.3344 43.8045 138.401 43.5571C157.254 43.4581 176.025 44.0519 194.302 45.3135C223.61 47.3421 251.354 51.1024 275.723 56.248C306.02 62.6306 332.117 71.3633 357.227 79.626C364.143 81.9019 371.305 84.1284 378.797 86.2065C408.435 94.4197 438.402 98.9221 472.568 97.3636C506.898 95.805 535.877 86.726 556.294 76.9295C562.963 73.7135 569.302 70.448 575.477 67.133C600.339 53.7247 623.309 39.7721 656.816 27.6996C681.679 18.7443 716.668 10.8774 755.115 8.7004C788.045 6.82026 820.153 8.72514 852.343 12.0154C903.633 17.26 946.855 24.6321 981.844 32.1526C985.713 32.9937 989.582 33.8348 993.287 34.6512C1023.17 41.3059 1050.67 48.3564 1085.66 55.778C1094.55 57.6828 1103.77 59.6125 1113.57 61.5421C1161.65 71.0664 1226.27 79.6507 1269.49 78.6117" stroke="#FF8763" stroke-width="2" stroke-miterlimit="10"/>
<path d="M0.503304 56.2727C39.7734 47.2926 88.4288 42.2212 137.331 41.7264C156.102 41.5285 174.872 42.0233 193.149 43.1612C222.54 44.9919 250.531 48.5543 275.229 53.502C306.02 59.6372 332.776 68.0978 357.556 76.4347C364.39 78.7106 371.305 80.9866 378.55 83.1388C407.282 91.6737 436.426 97.1904 471.415 96.2008C507.145 95.2113 537.771 86.1322 559.505 76.3357C566.668 73.1445 573.418 69.8542 580.004 66.5392C606.596 53.1062 631.13 39.1041 666.036 27.1059C691.393 18.3732 726.3 10.7042 764.335 8.35403C797.019 6.30072 829.291 7.80979 861.399 11.0753C912.359 16.2457 954.346 24.5083 988.018 33.0184C991.805 33.9585 995.427 34.9233 999.05 35.8634C1027.7 43.4086 1053.88 51.4239 1087.63 59.464C1096.2 61.4926 1105.17 63.5459 1114.72 65.5744C1161.65 75.5194 1226.6 83.8315 1270.98 81.5061" stroke="#FF8D64" stroke-width="2" stroke-miterlimit="10"/>
<path d="M0.503304 54.9368C39.3617 45.9073 87.5232 40.6627 136.261 39.8958C154.949 39.5989 173.72 39.97 192.079 41.009C221.47 42.6665 249.708 46.0309 274.818 50.756C306.102 56.6438 333.517 64.8323 357.968 73.2434C364.637 75.5441 371.387 77.8695 378.468 80.096C406.376 88.9524 434.615 95.4587 470.509 95.0876C507.721 94.6918 539.829 85.5632 562.963 75.8162C570.537 72.6249 577.782 69.3347 584.78 66.0197C613.182 52.5867 639.28 38.5351 675.504 26.5617C701.437 18.0268 736.179 10.5805 773.885 8.03244C806.404 5.80596 838.759 6.91919 870.784 10.1352C921.416 15.2561 962.167 24.3847 994.604 33.8843C998.227 34.948 1001.77 36.0118 1005.22 37.0756C1032.64 45.5362 1057.5 54.5163 1090.1 63.1253C1098.42 65.3023 1107.15 67.4793 1116.37 69.6068C1162.14 79.9971 1227.43 88.0124 1272.87 84.4005" stroke="#FF9264" stroke-width="2" stroke-miterlimit="10"/>
<path d="M0.58564 53.6009C39.0324 44.4971 86.6999 39.0793 135.191 38.065C153.797 37.6692 172.567 37.9166 190.926 38.8319C220.399 40.2915 248.802 43.458 274.324 47.9852C306.102 53.6256 334.093 61.5172 358.297 70.0273C364.884 72.328 371.47 74.7029 378.221 77.0036C405.224 86.2064 432.721 93.2074 469.357 93.9248C507.804 94.667 541.722 84.9694 566.174 75.2224C574.242 72.0311 581.816 68.7409 589.307 65.4259C619.439 51.9681 647.101 37.8424 684.807 25.9678C711.234 17.6309 745.894 10.432 783.188 7.68602C815.46 5.28638 848.062 5.97905 879.922 9.19507C930.307 14.2417 969.741 24.2609 1000.86 34.7501C1004.32 35.9128 1007.69 37.1002 1010.99 38.2629C1037.25 47.6141 1060.71 57.5838 1092.08 66.7618C1100.07 69.0872 1108.55 71.3879 1117.6 73.5897C1162.22 84.4252 1227.84 92.1436 1274.43 87.2454" stroke="#FF9865" stroke-width="2" stroke-miterlimit="10"/>
<path d="M0.58564 52.2403C38.5385 43.0623 85.7943 37.4961 134.12 36.2097C152.644 35.715 171.415 35.8634 189.774 36.655C219.329 37.9414 247.897 40.8853 273.83 45.2146C306.184 50.6076 334.752 58.2271 358.627 66.8114C365.048 69.1368 371.47 71.5365 377.974 73.9114C404.071 83.4357 430.581 91.9706 468.287 92.7375C508.215 93.5538 543.698 84.3263 569.549 74.6041C578.029 71.4128 586.097 68.1225 594 64.8076C625.943 51.3498 655.087 37.1498 694.192 25.3495C721.113 17.2105 755.691 10.2589 792.656 7.2903C824.763 4.71748 857.447 5.01435 889.226 8.18089C939.281 13.1781 977.48 24.0383 1007.37 35.5665C1010.66 36.8529 1013.95 38.1393 1017.08 39.4258C1042.11 49.6923 1064.25 60.6267 1094.47 70.3737C1102.12 72.8476 1110.36 75.272 1119.17 77.5479C1162.63 88.8287 1228.5 96.2256 1276.25 90.0657" stroke="#FF9D65" stroke-width="2" stroke-miterlimit="10"/>
<path d="M0.58564 50.9045C38.1268 41.6522 84.8887 35.9129 133.05 34.3791C151.574 33.7854 170.262 33.8101 188.703 34.478C218.259 35.5665 247.073 38.3125 273.418 42.4439C306.267 47.5895 335.493 54.9369 359.038 63.5954C365.377 65.9208 371.552 68.3947 377.891 70.8438C403.083 80.7145 428.687 90.2389 467.299 91.5995C508.544 93.0343 545.674 83.7574 572.924 74.0598C581.816 70.8685 590.378 67.603 598.693 64.2633C632.365 50.7808 663.073 36.5066 703.578 24.7805C730.993 16.8394 765.488 10.1105 802.041 6.9687C833.902 4.22271 866.832 4.12376 898.446 7.24083C948.172 12.1638 985.137 23.9147 1013.7 36.4324C1016.91 37.8178 1019.96 39.2279 1023.01 40.638C1046.88 51.7951 1067.63 63.7191 1096.69 74.0351C1104.1 76.6574 1112 79.1807 1120.56 81.5804C1162.96 93.3065 1229.07 100.406 1277.97 92.9601" stroke="#FFA366" stroke-width="2" stroke-miterlimit="10"/>
<path d="M0.667976 49.5685C52.0402 36.6797 121.03 30.2972 187.633 32.3257C254.236 34.3296 317.628 44.695 359.45 60.4041C390.734 72.1796 416.832 88.0618 466.311 90.4367C508.791 92.49 547.732 83.1388 576.3 73.466C623.556 57.4354 660.685 38.7083 712.963 24.1867C765.323 9.66519 840.076 -0.378692 907.749 6.27599C962.744 11.669 1000.61 26.6853 1029.02 41.8254C1057.42 56.9654 1080.8 73.3918 1122.05 85.5879C1163.29 97.7841 1230.12 103.726 1280.17 94.9935" stroke="#FFA866" stroke-width="2" stroke-miterlimit="10"/>
</svg>
