<svg width="1266" height="94" viewBox="0 0 1266 94" fill="none" xmlns="http://www.w3.org/2000/svg">
<path d="M0.210915 52.3013C40.7982 43.5438 90.8531 38.9671 140.249 39.2393C159.185 39.3382 178.038 40.1546 196.232 41.6637C225.376 44.0633 252.791 48.2441 276.336 53.7856C305.562 60.6629 330.425 69.9399 356.194 78.0541C363.356 80.3054 370.848 82.4329 378.834 84.3625C410.2 91.9325 441.814 94.4558 474.251 91.6851C505.7 88.9886 531.551 79.9343 549.251 70.113C555.096 66.897 560.53 63.6068 565.716 60.3166C587.039 46.933 606.798 33.0794 637.67 20.908C661.463 11.532 696.699 3.2446 735.804 1.43869C769.229 -0.095107 800.925 2.62613 833.362 5.99058C885.228 11.3589 931.002 16.9993 968.543 22.516C972.742 23.1344 976.859 23.7282 980.893 24.3466C1013.16 29.1707 1043.38 34.2916 1080.67 40.5752C1090.14 42.1832 1099.94 43.8654 1110.15 45.6218C1160.45 54.2556 1224.5 63.4584 1265.5 64.9674" stroke="#FF7D62" stroke-width="2" stroke-miterlimit="10"/>
</svg>
