<svg width="1256" height="105" viewBox="0 0 1256 105" fill="none" xmlns="http://www.w3.org/2000/svg">
<path d="M0.190285 57.8361C43.3297 49.4745 96.2661 45.9121 146.65 47.7428C165.997 48.4355 185.015 49.9445 202.962 52.1463C231.777 55.6839 257.957 61.0769 279.115 67.8058C305.295 76.1427 326.371 87.0772 354.033 94.7709C361.854 96.9479 370.416 98.828 379.883 100.288C416.354 105.928 453.072 102.935 480.487 96.1068C503.374 90.4169 519.675 81.0162 529.225 71.0713C532.353 67.8305 535.153 64.5403 537.787 61.2748C548.49 47.9654 558.286 34.2603 581.503 21.9404C601.755 11.2039 638.062 1.65477 679.39 1.0363C714.05 0.516794 744.758 5.68716 778.018 9.22478C831.695 14.9641 885.125 15.3599 930.158 14.8652C935.18 14.8157 940.202 14.7415 945.142 14.6673C984.577 14.0735 1023.02 13.3314 1067.4 16.1516C1078.68 16.869 1090.12 17.8585 1101.65 19.0707C1158.78 25.0327 1221.02 36.0414 1255.27 45.2689" stroke="#FF5C5F" stroke-width="2" stroke-miterlimit="10"/>
</svg>
