<svg width="1219" height="97" viewBox="0 0 1219 97" fill="none" xmlns="http://www.w3.org/2000/svg">
<path d="M0.0848694 75.9319C41.9071 72.3696 91.1388 71.0584 136.748 72.3696C145.722 72.617 154.531 72.9881 163.093 73.4333C198.247 75.264 229.366 78.6285 252.994 83.0814C270.777 86.4211 286.09 90.5772 304.366 93.2984C315.727 94.9807 328.241 96.1434 343.636 95.995C377.885 95.6734 413.697 87.4354 434.608 77.911C440.618 75.165 445.64 72.3696 450.085 69.5247C461.035 62.4742 468.197 55.2752 475.195 48.6205C485.157 39.2693 494.46 30.1903 516.03 23.5108C535.623 17.4499 566.331 13.7886 601.321 13.3185C606.507 13.2443 611.858 13.2443 617.127 13.3433C651.211 13.9617 680.849 17.8457 713.203 18.761C765.646 20.2453 821.793 13.3928 873.33 7.87604C890.454 6.04539 907.66 4.41264 924.949 3.24992C960.35 0.899755 994.104 0.454466 1030.49 1.61718C1041.19 1.96352 1051.98 2.48302 1062.93 3.07675C1125.42 6.51542 1188.81 12.1558 1218.12 18.2663" stroke="#C3617D" stroke-width="2" stroke-miterlimit="10"/>
</svg>
