<svg width="1273" height="91" viewBox="0 0 1273 91" fill="none" xmlns="http://www.w3.org/2000/svg">
<path d="M0.226341 49.0683C39.0848 40.0387 87.2462 34.7941 135.984 34.0272C154.672 33.7304 173.443 34.1015 191.802 35.1405C221.193 36.798 249.431 40.1624 274.541 44.8875C305.825 50.7753 333.24 58.9638 357.691 67.3749C364.36 69.6756 371.11 72.001 378.191 74.2275C406.1 83.0839 434.338 89.5902 470.232 89.2191C507.444 88.8233 539.552 79.6947 562.686 69.9477C570.26 66.7564 577.505 63.4662 584.503 60.1512C612.905 46.7181 639.003 32.6666 675.227 20.6931C701.16 12.1583 735.902 4.71198 773.608 2.16391C806.127 -0.0625675 838.482 1.05066 870.507 4.26668C921.139 9.38757 961.89 18.5161 994.327 28.0157C997.95 29.0795 1001.49 30.1433 1004.95 31.207C1032.36 39.6676 1057.23 48.6478 1089.83 57.2568C1098.14 59.4338 1106.87 61.6108 1116.09 63.7383C1161.86 74.1285 1227.15 82.1438 1272.59 78.532" stroke="#FF9264" stroke-width="2" stroke-miterlimit="10"/>
</svg>
