<svg width="1263" height="97" viewBox="0 0 1263 97" fill="none" xmlns="http://www.w3.org/2000/svg">
<path d="M0.204102 54.0526C41.6147 45.4188 92.6576 41.1885 142.383 41.9802C161.483 42.277 180.336 43.3161 198.448 45.0725C227.51 47.868 254.513 52.4446 277.235 58.3819C305.473 65.7292 329.019 75.5752 355.446 83.541C362.773 85.7675 370.677 87.8208 379.156 89.602C412.252 96.5041 445.43 97.1473 476.302 93.0901C504.788 89.3546 527.51 80.2261 542.493 70.3553C547.433 67.1393 551.961 63.8491 556.324 60.5589C574.107 47.2 590.655 33.3959 618.893 21.175C641.533 11.3538 677.098 2.64578 716.945 1.23568C750.781 0.0482271 782.148 3.56111 814.914 6.99977C867.357 12.4917 915.683 16.3757 955.776 19.8886C960.222 20.2844 964.667 20.6555 969.031 21.0513C1003.69 24.0694 1036.7 27.236 1076.3 32.3568C1086.35 33.668 1096.72 35.1276 1107.42 36.6861C1160.03 44.4293 1223.42 54.2258 1262.2 58.3077" stroke="#FF7261" stroke-width="2" stroke-miterlimit="10"/>
</svg>
