<svg width="1181" height="88" viewBox="0 0 1181 88" fill="none" xmlns="http://www.w3.org/2000/svg">
<path d="M0.0816803 84.4372C35.4001 87.3317 74.2585 87.678 110.729 85.4763C117.892 85.0557 124.972 84.5115 131.888 83.893C160.373 81.3202 185.894 77.2136 209.028 72.4143C226.728 68.753 243.112 64.6958 259.083 60.4408C268.468 57.9422 277.854 55.3694 287.486 52.7223C309.467 46.6119 331.696 39.9572 354.912 33.9457C361.58 32.214 368.331 30.5565 375.164 28.9733C392.289 25.0151 410.894 21.5764 430.324 19.0531C457.821 15.4907 487.047 13.7343 516.191 15.1444C547.228 16.6534 575.878 21.5517 608.315 23.0855C613.172 23.3081 617.947 23.4566 622.722 23.5555C653.677 24.1245 683.48 21.8733 713.2 18.4346C760.62 12.9426 807.547 4.35836 855.461 1.7608C871.927 0.870214 888.475 0.69704 905.352 1.58763C938.941 3.36881 967.673 9.20712 998.711 13.5364C1007.85 14.798 1017.23 15.9608 1026.95 16.8019C1082.85 21.7743 1147.72 15.936 1180.41 3.22037" stroke="#69A3AE" stroke-width="2" stroke-miterlimit="10"/>
</svg>
