<svg width="1268" height="93" viewBox="0 0 1268 93" fill="none" xmlns="http://www.w3.org/2000/svg">
<path d="M0.214699 51.448C40.3904 42.6163 89.9513 37.8665 139.183 37.8912C158.118 37.8912 176.889 38.6086 195.083 39.994C224.309 42.2205 251.889 46.1786 275.846 51.5222C305.649 58.1521 331.088 67.157 356.527 75.3455C363.525 77.5967 370.852 79.7984 378.591 81.8022C409.134 89.6939 439.924 93.2068 473.185 91.0298C506.033 88.9022 533.448 79.8232 552.548 70.0267C558.805 66.8107 564.65 63.5452 570.413 60.2302C593.465 46.8466 614.87 32.9187 647.06 20.8216C671.428 11.6683 706.5 3.57875 745.276 1.57492C778.454 -0.13204 810.314 2.1934 842.669 5.50837C894.206 10.8024 938.745 17.3087 974.969 23.8397C979.003 24.5571 982.955 25.2993 986.906 26.0167C1017.94 31.756 1046.84 37.8417 1082.98 44.6943C1092.12 46.4508 1101.67 48.2567 1111.63 50.0874C1160.78 59.1664 1225.16 68.0476 1267.31 68.295" stroke="#FF8263" stroke-width="2" stroke-miterlimit="10"/>
</svg>
