<svg width="1270" height="92" viewBox="0 0 1270 92" fill="none" xmlns="http://www.w3.org/2000/svg">
<path d="M0.218987 50.6506C39.9007 41.7447 89.05 36.8465 138.117 36.5991C156.97 36.5001 175.741 37.0939 194.017 38.3555C223.326 40.3841 251.07 44.1444 275.439 49.29C305.735 55.6726 331.833 64.4053 356.943 72.668C363.858 74.9439 371.021 77.1704 378.513 79.2484C408.15 87.4617 438.117 91.9641 472.283 90.4056C506.614 88.847 535.593 79.768 556.01 69.9715C562.679 66.7554 569.018 63.49 575.192 60.175C600.055 46.7667 623.024 32.8141 656.532 20.7416C681.394 11.7863 716.383 3.91939 754.83 1.74239C787.761 -0.137746 819.869 1.76713 852.059 5.05737C903.348 10.302 946.57 17.674 981.559 25.1946C985.429 26.0357 989.298 26.8768 993.003 27.6932C1022.89 34.3479 1050.38 41.3984 1085.37 48.82C1094.27 50.7248 1103.49 52.6545 1113.28 54.5841C1161.36 64.1084 1225.99 72.6927 1269.21 71.6537" stroke="#FF8763" stroke-width="2" stroke-miterlimit="10"/>
</svg>
