<svg width="1259" height="101" viewBox="0 0 1259 101" fill="none" xmlns="http://www.w3.org/2000/svg">
<path d="M0.196609 55.9321C42.5128 47.4468 94.4613 43.5381 144.516 44.8492C163.781 45.344 182.716 46.6304 200.746 48.6095C229.643 51.776 256.234 56.7485 278.216 63.0816C305.384 70.9237 327.694 81.3139 354.78 89.1561C362.354 91.3578 370.587 93.3121 379.56 94.9449C414.385 101.228 449.209 100.016 478.435 94.5985C504.039 89.8487 523.633 80.6212 535.9 70.7011C539.934 67.4603 543.556 64.1948 547.096 60.9046C561.339 47.5704 574.511 33.8158 600.197 21.5454C621.685 11.2789 657.579 2.15037 698.167 1.11135C732.415 0.245497 763.452 4.59948 796.466 8.08762C849.484 13.7033 900.445 15.8555 943.008 17.3646C947.783 17.5378 952.476 17.6862 957.168 17.8346C994.215 19.0468 1029.95 20.259 1071.93 24.2419C1082.55 25.2562 1093.5 26.4684 1104.62 27.8538C1159.45 34.7064 1222.26 45.1213 1258.82 51.776" stroke="#FF6760" stroke-width="2" stroke-miterlimit="10"/>
</svg>
