<svg width="1249" height="115" viewBox="0 0 1249 115" fill="none" xmlns="http://www.w3.org/2000/svg">
<path d="M0.17691 62.5897C45.0452 54.525 99.7929 51.6058 151 54.4507C170.677 55.5392 189.694 57.4936 207.477 60.1901C236.044 64.4946 261.401 70.6793 280.913 78.2245C305.035 87.5263 323.641 99.574 352.537 106.971C360.852 109.098 370.073 110.805 380.611 111.968C420.54 116.347 461.539 109.84 484.673 100.118C502.538 92.5977 511.758 82.7765 515.875 72.7821C517.274 69.5166 518.262 66.2263 519.085 62.9856C522.625 49.7257 525.507 36.0699 543.948 23.7006C561.402 12.024 598.86 1.65855 641.671 1.85646C677.236 1.98015 707.285 8.808 740.957 12.4941C795.787 18.5055 854.322 15.3885 904.459 10.9108C910.057 10.416 915.656 9.8965 921.254 9.35225C965.546 5.14669 1009.34 0.520574 1058.41 1.04009C1070.84 1.16378 1083.44 1.68329 1095.87 2.5244C1157.53 6.70523 1218.54 18.9261 1248.34 33.2745" stroke="#FF465D" stroke-width="2" stroke-miterlimit="10"/>
</svg>
