<svg width="1228" height="111" viewBox="0 0 1228 111" fill="none" xmlns="http://www.w3.org/2000/svg">
<path d="M0.118118 76.1508C43.5869 70.9805 95.453 69.2488 143.285 71.4258C152.67 71.8463 161.891 72.44 170.865 73.1575C207.665 76.0766 240.184 81.2965 263.895 88.0748C281.76 93.1462 296.661 99.4299 315.596 103.858C327.369 106.604 340.706 108.682 357.583 109.177C394.877 110.265 434.147 101.681 454.4 91.2661C460.245 88.2727 464.855 85.1804 468.642 82.0386C478.028 74.2212 482.391 66.0822 486.26 58.3885C491.859 47.6025 496.469 36.8164 515.816 27.9848C532.857 20.1674 563.813 14.2301 599.46 13.2653C604.811 13.1169 610.163 13.0921 615.679 13.1911C650.585 13.8095 680.141 19.2768 713.072 21.2559C766.749 24.5213 825.201 18.0893 877.644 11.8057C894.932 9.7524 912.304 7.74856 929.757 6.06634C965.569 2.65241 1000.64 0.673326 1038.35 1.0444C1049.46 1.1681 1060.66 1.51444 1071.77 2.03395C1135.9 5.0768 1198.88 13.6116 1227.37 24.3977" stroke="#DA5170" stroke-width="2" stroke-miterlimit="10"/>
</svg>
