<svg width="1258" height="103" viewBox="0 0 1258 103" fill="none" xmlns="http://www.w3.org/2000/svg">
<path d="M0.193146 56.8535C42.921 48.4424 95.3634 44.6821 145.583 46.2654C164.93 46.8591 183.865 48.2445 201.812 50.3472C230.709 53.7117 257.054 58.8821 278.624 65.4131C305.298 73.5026 327.032 84.1649 354.365 91.9328C362.104 94.1098 370.419 96.0394 379.722 97.598C415.369 103.56 451.099 101.457 479.502 95.322C503.706 90.1022 521.654 80.7757 532.603 70.8555C536.226 67.6148 539.436 64.3246 542.483 61.0591C554.914 47.7497 566.44 34.0198 590.891 21.7247C611.72 11.2355 647.861 1.88432 688.86 1.06794C723.355 0.375262 754.228 5.12506 787.324 8.66268C840.672 14.3526 892.867 15.6142 936.665 16.1337C941.522 16.1832 946.38 16.2327 951.237 16.2822C989.519 16.6038 1026.57 16.8264 1069.71 20.2404C1080.66 21.1062 1091.85 22.2194 1103.21 23.5058C1159.2 29.9131 1221.76 40.625 1257.08 48.5661" stroke="#FF6160" stroke-width="2" stroke-miterlimit="10"/>
</svg>
