<svg width="1231" height="115" viewBox="0 0 1231 115" fill="none" xmlns="http://www.w3.org/2000/svg">
<path d="M0.128662 76.4804C44.1737 70.7657 96.8632 68.8856 145.519 71.3842C155.069 71.879 164.454 72.5222 173.592 73.3138C210.969 76.6041 243.982 82.4424 267.692 89.9876C285.557 95.6281 300.376 102.604 319.558 107.602C331.496 110.719 345.08 113.069 362.451 113.786C400.815 115.345 441.156 106.637 461.243 95.9496C467.006 92.8821 471.534 89.6908 475.074 86.4253C483.966 78.3605 487.341 69.8999 490.223 61.8598C494.339 50.579 497.467 39.2487 515.991 29.6749C532.292 21.2638 563.165 14.5844 599.059 13.4216C604.411 13.2485 609.844 13.199 615.36 13.298C650.514 13.9164 680.069 19.9032 713.247 22.2286C767.336 26.0878 826.529 19.7795 879.301 13.2732C896.672 11.1457 914.043 8.99343 931.497 7.16277C967.474 3.37776 1002.96 0.903909 1041.16 1.00286C1052.35 1.0276 1063.71 1.34919 1074.91 1.84397C1139.54 4.76312 1202.44 14.2628 1230.59 26.6073" stroke="#E14C6C" stroke-width="2" stroke-miterlimit="10"/>
</svg>
