<svg width="1222" height="102" viewBox="0 0 1222 102" fill="none" xmlns="http://www.w3.org/2000/svg">
<path d="M0.096405 75.8772C42.4949 71.7706 92.5498 70.311 138.9 71.9191C148.038 72.2407 156.93 72.6612 165.656 73.2055C201.386 75.3825 232.918 79.3901 256.628 84.61C274.411 88.5187 289.641 93.3922 308.165 96.6824C319.608 98.7357 332.451 100.195 348.34 100.245C383.659 100.393 420.541 92.0563 441.206 82.2351C447.133 79.4149 452.073 76.5204 456.271 73.5765C466.727 66.2787 472.902 58.7581 478.911 51.7571C487.391 41.9359 495.13 32.2878 515.959 24.8909C534.729 18.2363 565.52 13.8328 600.673 13.1896C605.942 13.0906 611.211 13.0906 616.645 13.1896C650.975 13.808 680.613 18.2115 713.132 19.4979C765.986 21.576 822.874 14.8718 874.741 9.08298C891.947 7.1781 909.153 5.42166 926.524 4.08577C962.09 1.36453 996.256 0.424466 1033.14 1.33979C1044.01 1.61192 1054.95 2.05721 1065.9 2.65094C1128.88 5.94117 1192.19 12.5711 1221.17 20.2401" stroke="#CB5C79" stroke-width="2" stroke-miterlimit="10"/>
</svg>
