<svg width="1190" height="84" viewBox="0 0 1190 84" fill="none" xmlns="http://www.w3.org/2000/svg">
<path d="M0.0347748 81.4669C36.9997 82.7533 78.4103 82.6791 117.186 81.3432C124.76 81.0958 132.252 80.7742 139.579 80.4279C169.711 78.9435 196.632 76.7418 219.931 74.2432C237.631 72.3383 253.685 70.285 270.315 67.8112C280.112 66.3516 290.403 64.7436 301.435 62.6903C326.544 58.0394 352.148 50.9642 374.706 44.0869C381.21 42.1078 387.467 40.1534 393.806 38.2485C409.448 33.5235 425.173 29.1447 441.473 25.5824C464.607 20.5852 488.976 16.8744 516.062 16.3796C544.3 15.8601 573.444 18.7545 606.457 19.7935C611.397 19.942 616.336 20.0657 621.194 20.1399C652.89 20.7089 682.692 20.0162 713.071 17.6413C761.726 13.9057 810.958 5.74202 859.86 2.4023C876.49 1.28907 893.203 0.744813 910.162 1.11589C944.163 1.88279 974.213 6.13782 1006.57 9.67544C1016.12 10.7145 1025.83 11.704 1035.79 12.4957C1093.34 17.0723 1157.88 14.1284 1189.66 6.11309" stroke="#8092A2" stroke-width="2" stroke-miterlimit="10"/>
</svg>
