<svg width="1225" height="106" viewBox="0 0 1225 106" fill="none" xmlns="http://www.w3.org/2000/svg">
<path d="M0.107025 75.9837C43.0818 71.3575 94.0424 69.7495 141.134 71.6544C150.354 72.0255 159.493 72.5203 168.302 73.1635C204.525 75.7116 236.633 80.3129 260.343 86.3244C278.208 90.8021 293.192 96.393 311.963 100.252C323.571 102.652 336.661 104.408 353.044 104.705C389.35 105.324 427.468 96.8631 447.885 86.745C453.73 83.8505 458.505 80.8324 462.539 77.7896C472.501 70.2196 477.687 62.4022 482.709 55.0548C489.789 44.7388 495.882 34.5218 515.969 26.4075C533.834 19.1591 564.707 14.0135 600.108 13.1971C605.377 13.0734 610.728 13.0486 616.162 13.1476C650.821 13.7661 680.377 18.6891 713.143 20.3218C766.409 22.9688 824.12 16.4131 876.233 10.4016C893.522 8.42253 910.728 6.5424 928.182 5.03334C963.829 1.96575 998.489 0.506174 1035.78 1.14938C1046.73 1.34729 1057.85 1.74311 1068.88 2.28736C1132.44 5.4539 1195.58 13.0239 1224.31 22.2514" stroke="#D25775" stroke-width="2" stroke-miterlimit="10"/>
</svg>
