<svg width="17" height="17" viewBox="0 0 17 17" fill="none" xmlns="http://www.w3.org/2000/svg">
<path d="M0.833313 9.99992H3.33331C3.77534 9.99992 4.19926 10.1755 4.51182 10.4881C4.82438 10.8006 4.99998 11.2246 4.99998 11.6666V14.1666C4.99998 14.6086 4.82438 15.0325 4.51182 15.3451C4.19926 15.6577 3.77534 15.8333 3.33331 15.8333H2.49998C2.05795 15.8333 1.63403 15.6577 1.32147 15.3451C1.00891 15.0325 0.833313 14.6086 0.833313 14.1666V8.33325C0.833313 6.34413 1.62349 4.43647 3.03001 3.02995C4.43653 1.62343 6.34419 0.833252 8.33331 0.833252C10.3224 0.833252 12.2301 1.62343 13.6366 3.02995C15.0431 4.43647 15.8333 6.34413 15.8333 8.33325V14.1666C15.8333 14.6086 15.6577 15.0325 15.3452 15.3451C15.0326 15.6577 14.6087 15.8333 14.1666 15.8333H13.3333C12.8913 15.8333 12.4674 15.6577 12.1548 15.3451C11.8422 15.0325 11.6666 14.6086 11.6666 14.1666V11.6666C11.6666 11.2246 11.8422 10.8006 12.1548 10.4881C12.4674 10.1755 12.8913 9.99992 13.3333 9.99992H15.8333" stroke="white" stroke-width="1.66667" stroke-linecap="round" stroke-linejoin="round"/>
</svg>
