<svg width="17" height="17" viewBox="0 0 17 17" fill="none" xmlns="http://www.w3.org/2000/svg">
<path d="M0.833328 9.99992H3.33333C3.77536 9.99992 4.19928 10.1755 4.51184 10.4881C4.8244 10.8006 4.99999 11.2246 4.99999 11.6666V14.1666C4.99999 14.6086 4.8244 15.0325 4.51184 15.3451C4.19928 15.6577 3.77536 15.8333 3.33333 15.8333H2.49999C2.05797 15.8333 1.63404 15.6577 1.32148 15.3451C1.00892 15.0325 0.833328 14.6086 0.833328 14.1666V8.33325C0.833328 6.34413 1.6235 4.43647 3.03003 3.02995C4.43655 1.62343 6.3442 0.833252 8.33333 0.833252C10.3225 0.833252 12.2301 1.62343 13.6366 3.02995C15.0432 4.43647 15.8333 6.34413 15.8333 8.33325V14.1666C15.8333 14.6086 15.6577 15.0325 15.3452 15.3451C15.0326 15.6577 14.6087 15.8333 14.1667 15.8333H13.3333C12.8913 15.8333 12.4674 15.6577 12.1548 15.3451C11.8423 15.0325 11.6667 14.6086 11.6667 14.1666V11.6666C11.6667 11.2246 11.8423 10.8006 12.1548 10.4881C12.4674 10.1755 12.8913 9.99992 13.3333 9.99992H15.8333" stroke="white" stroke-width="1.66667" stroke-linecap="round" stroke-linejoin="round"/>
</svg>
