<svg width="39" height="43" viewBox="0 0 39 43" fill="none" xmlns="http://www.w3.org/2000/svg">
<path d="M17.5 40.9559C18.1081 41.307 18.7979 41.4918 19.5 41.4918C20.2021 41.4918 20.8919 41.307 21.5 40.9559L35.5 32.9559C36.1075 32.6052 36.612 32.1009 36.9631 31.4936C37.3141 30.8863 37.4993 30.1974 37.5 29.4959V13.4959C37.4993 12.7944 37.3141 12.1055 36.9631 11.4982C36.612 10.8909 36.1075 10.3866 35.5 10.0359L21.5 2.0359C20.8919 1.68482 20.2021 1.5 19.5 1.5C18.7979 1.5 18.1081 1.68482 17.5 2.0359L3.5 10.0359C2.89253 10.3866 2.38796 10.8909 2.03692 11.4982C1.68589 12.1055 1.50072 12.7944 1.5 13.4959V29.4959C1.50072 30.1974 1.68589 30.8863 2.03692 31.4936C2.38796 32.1009 2.89253 32.6052 3.5 32.9559L17.5 40.9559Z" stroke="white" stroke-opacity="0.9" stroke-width="3" stroke-linecap="round" stroke-linejoin="round"/>
</svg>
