<svg width="17" height="19" viewBox="0 0 17 19" fill="none" xmlns="http://www.w3.org/2000/svg">
<path d="M1.6695 10.8355C1.51181 10.8361 1.3572 10.7919 1.22363 10.708C1.09007 10.6242 0.983032 10.5042 0.914962 10.3619C0.846892 10.2197 0.820581 10.061 0.839086 9.90443C0.857592 9.74782 0.920154 9.59968 1.0195 9.47721L9.2695 0.977211C9.33139 0.905779 9.41572 0.857508 9.50865 0.840322C9.60159 0.823135 9.69761 0.838055 9.78095 0.882631C9.86428 0.927207 9.92999 0.998792 9.96728 1.08563C10.0046 1.17248 10.0112 1.26942 9.98617 1.36054L8.38617 6.37721C8.33899 6.50348 8.32315 6.63931 8.34 6.77305C8.35685 6.90679 8.40589 7.03444 8.48291 7.14507C8.55994 7.25569 8.66265 7.34597 8.78223 7.40818C8.90182 7.47038 9.03471 7.50265 9.1695 7.50221H15.0028C15.1605 7.50167 15.3151 7.54589 15.4487 7.62973C15.5823 7.71357 15.6893 7.83358 15.7574 7.97583C15.8254 8.11808 15.8518 8.27672 15.8333 8.43333C15.8147 8.58994 15.7522 8.73808 15.6528 8.86054L7.40284 17.3605C7.34095 17.432 7.25662 17.4802 7.16369 17.4974C7.07075 17.5146 6.97473 17.4997 6.89139 17.4551C6.80806 17.4105 6.74235 17.339 6.70506 17.2521C6.66777 17.1653 6.66111 17.0683 6.68617 16.9772L8.28617 11.9605C8.33335 11.8343 8.34919 11.6984 8.33234 11.5647C8.31549 11.431 8.26645 11.3033 8.18943 11.1927C8.1124 11.0821 8.00969 10.9918 7.89011 10.9296C7.77052 10.8674 7.63763 10.8351 7.50284 10.8355H1.6695Z" stroke="white" stroke-width="1.66667" stroke-linecap="round" stroke-linejoin="round"/>
</svg>
