<svg width="15" height="19" viewBox="0 0 15 19" fill="none" xmlns="http://www.w3.org/2000/svg">
<path d="M14.1666 10.0004C14.1666 14.1671 11.25 16.2504 7.78331 17.4587C7.60178 17.5203 7.40459 17.5173 7.22498 17.4504C3.74998 16.2504 0.833313 14.1671 0.833313 10.0004V4.16708C0.833313 3.94607 0.921111 3.73411 1.07739 3.57783C1.23367 3.42155 1.44563 3.33375 1.66665 3.33375C3.33331 3.33375 5.41665 2.33375 6.86665 1.06708C7.04319 0.916248 7.26777 0.833374 7.49998 0.833374C7.73218 0.833374 7.95677 0.916248 8.13331 1.06708C9.59165 2.34208 11.6666 3.33375 13.3333 3.33375C13.5543 3.33375 13.7663 3.42155 13.9226 3.57783C14.0788 3.73411 14.1666 3.94607 14.1666 4.16708V10.0004Z" stroke="white" stroke-width="1.66667" stroke-linecap="round" stroke-linejoin="round"/>
</svg>
