<svg width="554" height="648" viewBox="0 0 554 648" fill="none" xmlns="http://www.w3.org/2000/svg">
<path fill-rule="evenodd" clip-rule="evenodd" d="M138.5 324H188.36V0H193.9V324H216.06V0H221.6V324H243.76V0H249.3V324H271.46V0H277V324H554V330.48H277V356.4H554V362.88H277V388.8H554V395.28H277V421.2H554V427.68H277V486C277 575.47 214.991 648 138.5 648C62.0086 648 3.8147e-06 575.47 3.8147e-06 486C3.8147e-06 396.53 62.0086 324 138.5 324ZM249.3 356.4H271.46V330.48H249.3V356.4ZM243.76 356.4H221.6V330.48H243.76V356.4ZM216.06 356.4H193.9V330.48H216.06V356.4ZM188.36 356.4V330.48H138.5C65.0682 330.48 5.54 400.109 5.54 486C5.54 571.891 65.0682 641.52 138.5 641.52C211.932 641.52 271.46 571.891 271.46 486V427.68H249.3V486C249.3 557.576 199.693 615.6 138.5 615.6C77.3069 615.6 27.7 557.576 27.7 486C27.7 414.424 77.3069 356.4 138.5 356.4H188.36ZM249.3 421.2H271.46V395.28H249.3V421.2ZM243.76 427.68V486C243.76 553.997 196.633 609.12 138.5 609.12C80.3665 609.12 33.24 553.997 33.24 486C33.24 418.003 80.3665 362.88 138.5 362.88H188.36V388.8H138.5C92.6051 388.8 55.4 432.318 55.4 486C55.4 539.682 92.6051 583.2 138.5 583.2C184.395 583.2 221.6 539.682 221.6 486V427.68H243.76ZM216.06 388.8H193.9V362.88H216.06V388.8ZM221.6 362.88V388.8H243.76V362.88H221.6ZM221.6 395.28V421.2H243.76V395.28H221.6ZM216.06 486V427.68H193.9V486C193.9 521.788 169.097 550.8 138.5 550.8C107.903 550.8 83.1 521.788 83.1 486C83.1 450.212 107.903 421.2 138.5 421.2H188.36V395.28H138.5C95.6648 395.28 60.94 435.897 60.94 486C60.94 536.103 95.6648 576.72 138.5 576.72C181.335 576.72 216.06 536.103 216.06 486ZM188.36 486C188.36 518.209 166.037 544.32 138.5 544.32C110.963 544.32 88.64 518.209 88.64 486C88.64 453.791 110.963 427.68 138.5 427.68H188.36V486ZM193.9 421.2V395.28H216.06V421.2H193.9ZM249.3 388.8H271.46V362.88H249.3V388.8Z" fill="url(#paint0_linear_3_276)"/>
<defs>
<linearGradient id="paint0_linear_3_276" x1="554" y1="0" x2="-2.57402e-05" y2="648" gradientUnits="userSpaceOnUse">
<stop stop-color="white"/>
<stop offset="1" stop-color="#FB2C36"/>
</linearGradient>
</defs>
</svg>
