<svg width="554" height="658" viewBox="0 0 554 658" fill="none" xmlns="http://www.w3.org/2000/svg">
<path fill-rule="evenodd" clip-rule="evenodd" d="M415.5 329H365.64V0H360.1V329H337.94V0H332.4V329H310.24V0H304.7V329H282.54V0H277V329H0V335.58H277V361.9H0V368.48H277V394.8H0V401.38H277V427.7H0V434.28H277V493.5C277 584.351 339.009 658 415.5 658C491.991 658 554 584.351 554 493.5C554 402.649 491.991 329 415.5 329ZM304.7 361.9H282.54V335.58H304.7V361.9ZM310.24 361.9H332.4V335.58H310.24V361.9ZM337.94 361.9H360.1V335.58H337.94V361.9ZM365.64 361.9V335.58H415.5C488.932 335.58 548.46 406.283 548.46 493.5C548.46 580.717 488.932 651.42 415.5 651.42C342.068 651.42 282.54 580.717 282.54 493.5V434.28H304.7V493.5C304.7 566.181 354.307 625.1 415.5 625.1C476.693 625.1 526.3 566.181 526.3 493.5C526.3 420.819 476.693 361.9 415.5 361.9H365.64ZM304.7 427.7H282.54V401.38H304.7V427.7ZM310.24 434.28V493.5C310.24 562.547 357.367 618.52 415.5 618.52C473.633 618.52 520.76 562.547 520.76 493.5C520.76 424.453 473.633 368.48 415.5 368.48H365.64V394.8H415.5C461.395 394.8 498.6 438.989 498.6 493.5C498.6 548.01 461.395 592.2 415.5 592.2C369.605 592.2 332.4 548.01 332.4 493.5V434.28H310.24ZM337.94 394.8H360.1V368.48H337.94V394.8ZM332.4 368.48V394.8H310.24V368.48H332.4ZM332.4 401.38V427.7H310.24V401.38H332.4ZM337.94 493.5V434.28H360.1V493.5C360.1 529.84 384.903 559.3 415.5 559.3C446.097 559.3 470.9 529.84 470.9 493.5C470.9 457.16 446.097 427.7 415.5 427.7H365.64V401.38H415.5C458.335 401.38 493.06 442.624 493.06 493.5C493.06 544.376 458.335 585.62 415.5 585.62C372.665 585.62 337.94 544.376 337.94 493.5ZM365.64 493.5C365.64 526.206 387.963 552.72 415.5 552.72C443.037 552.72 465.36 526.206 465.36 493.5C465.36 460.794 443.037 434.28 415.5 434.28H365.64V493.5ZM360.1 427.7V401.38H337.94V427.7H360.1ZM304.7 394.8H282.54V368.48H304.7V394.8Z" fill="url(#paint0_linear_3_275)"/>
<defs>
<linearGradient id="paint0_linear_3_275" x1="0" y1="0" x2="554" y2="658" gradientUnits="userSpaceOnUse">
<stop stop-color="white"/>
<stop offset="1" stop-color="#FB2C36"/>
</linearGradient>
</defs>
</svg>
