<svg width="8" height="8" viewBox="0 0 8 8" fill="none" xmlns="http://www.w3.org/2000/svg">
<path d="M6.31655 0.666992L7.32655 6.35099C7.33787 6.41792 7.32847 6.48671 7.29964 6.54816C7.2708 6.60961 7.22389 6.66079 7.16517 6.69486C7.10646 6.72892 7.03875 6.74425 6.97109 6.7388C6.90343 6.73334 6.83905 6.70736 6.78655 6.66433L4.39989 4.87299C4.28467 4.78692 4.14471 4.74041 4.00089 4.74041C3.85707 4.74041 3.7171 4.78692 3.60189 4.87299L1.21122 6.66366C1.15877 6.70662 1.09446 6.73256 1.02688 6.73802C0.959305 6.74348 0.891668 6.72821 0.832995 6.69424C0.774322 6.66027 0.727403 6.60921 0.698498 6.54788C0.669594 6.48655 0.660077 6.41787 0.671219 6.35099L1.68055 0.666992" stroke="white" stroke-width="1.33333" stroke-linecap="round" stroke-linejoin="round"/>
</svg>
