<svg width="8" height="8" viewBox="0 0 8 8" fill="none" xmlns="http://www.w3.org/2000/svg">
<path d="M6.31655 0.666748L7.32655 6.35075C7.33787 6.41768 7.32847 6.48647 7.29964 6.54792C7.2708 6.60936 7.22389 6.66055 7.16517 6.69461C7.10646 6.72868 7.03875 6.74401 6.97109 6.73855C6.90343 6.7331 6.83905 6.70712 6.78655 6.66408L4.39989 4.87275C4.28467 4.78667 4.14471 4.74016 4.00089 4.74016C3.85707 4.74016 3.7171 4.78667 3.60189 4.87275L1.21122 6.66341C1.15877 6.70637 1.09446 6.73231 1.02688 6.73778C0.959305 6.74324 0.891668 6.72797 0.832995 6.69399C0.774322 6.66002 0.727403 6.60897 0.698498 6.54764C0.669594 6.48631 0.660077 6.41762 0.671219 6.35075L1.68055 0.666748" stroke="white" stroke-width="1.33333" stroke-linecap="round" stroke-linejoin="round"/>
</svg>
